{"glyphs":{"0":{"ha":898,"x_min":38,"x_max":856,"o":"m 856 363 q 739 87 856 201 q 458 -27 621 -27 q 162 92 286 -27 q 38 379 38 210 l 38 722 q 159 1006 38 888 q 447 1124 280 1124 q 736 1003 615 1124 q 856 712 856 882 l 856 363 m 581 363 l 581 738 q 541 838 581 797 q 440 880 500 880 q 353 840 386 880 q 319 738 319 800 l 319 369 q 355 269 319 310 q 450 228 391 228 q 542 263 510 234 q 581 363 581 297 z "},"1":{"ha":607,"x_min":47,"x_max":564,"o":"m 564 0 l 68 0 l 68 242 l 181 242 l 181 890 l 47 890 l 47 1107 l 457 1107 l 457 242 l 564 242 l 564 0 z "},"2":{"ha":861,"x_min":47,"x_max":819,"o":"m 819 759 q 786 610 819 682 q 704 489 758 550 q 601 392 663 443 l 418 236 l 564 236 l 564 326 l 816 326 l 816 0 l 64 0 l 64 242 l 507 665 q 536 711 527 684 q 545 765 545 737 q 518 829 545 802 q 434 860 487 860 q 347 814 380 860 q 318 726 318 773 l 47 726 l 47 769 q 150 1010 47 901 q 447 1134 267 1134 q 710 1024 600 1134 q 819 759 819 913 z "},"3":{"ha":930,"x_min":51,"x_max":884,"o":"m 884 319 q 757 65 884 168 q 471 -33 635 -33 q 181 64 305 -33 q 51 319 51 167 l 334 319 q 376 247 338 275 q 465 218 414 218 q 553 253 517 218 q 588 339 588 288 q 548 434 588 394 q 451 474 507 474 l 394 474 l 394 685 l 451 685 q 536 713 499 685 q 572 785 572 741 q 541 859 572 828 q 467 890 511 890 q 397 861 426 890 q 367 792 367 833 l 116 792 q 224 1032 116 935 q 475 1124 328 1124 q 715 1039 613 1124 q 820 819 820 949 q 794 701 820 752 q 713 605 768 650 q 841 487 797 560 q 884 319 884 413 z "},"4":{"ha":1004,"x_min":42,"x_max":958,"o":"m 958 312 l 794 312 l 794 238 l 895 238 l 895 0 l 398 0 l 398 238 l 523 238 l 523 312 l 42 312 l 42 517 l 486 1107 l 791 1107 l 791 527 l 958 527 l 958 312 m 526 523 l 526 762 l 345 523 l 526 523 z "},"5":{"ha":932,"x_min":38,"x_max":891,"o":"m 891 390 q 763 84 891 203 q 461 -31 641 -31 q 182 60 304 -31 q 38 292 57 153 l 327 292 q 385 244 350 259 q 465 228 421 228 q 559 273 515 228 q 602 373 602 317 q 561 479 602 434 q 461 523 520 523 q 370 500 407 523 q 307 423 332 476 l 75 480 l 176 1107 l 790 1107 l 790 883 l 393 883 l 374 728 q 451 753 409 740 q 532 765 493 765 q 786 654 681 765 q 891 390 891 543 z "},"6":{"ha":930,"x_min":47,"x_max":893,"o":"m 893 400 q 769 96 893 219 q 470 -27 646 -27 q 171 99 296 -27 q 47 400 47 226 q 65 529 47 469 q 114 645 82 588 q 188 762 129 672 l 423 1118 l 736 1118 l 507 779 q 788 669 680 779 q 893 400 893 562 m 617 396 q 575 498 617 455 q 474 541 533 541 q 370 500 413 541 q 326 400 326 458 q 369 293 326 338 q 474 248 412 248 q 575 292 533 248 q 617 396 617 336 z "},"7":{"ha":862,"x_min":47,"x_max":826,"o":"m 826 869 l 443 0 l 137 0 l 533 859 l 309 859 l 309 708 l 47 708 l 47 1107 l 826 1107 l 826 869 z "},"8":{"ha":911,"x_min":47,"x_max":867,"o":"m 867 331 q 738 66 867 171 q 447 -33 616 -33 q 170 64 287 -33 q 47 316 47 166 q 89 477 47 409 q 215 594 132 545 q 133 669 162 620 q 101 802 101 722 q 211 1030 101 932 q 463 1128 320 1128 q 703 1040 604 1128 q 802 819 802 952 q 778 694 802 745 q 695 606 754 642 q 827 491 786 559 q 867 331 867 424 m 553 792 q 524 862 553 833 q 454 891 495 891 q 384 862 413 891 q 354 792 354 833 q 382 721 354 750 q 452 691 411 691 q 523 721 494 691 q 553 792 553 751 m 570 345 q 534 430 570 395 q 448 466 498 466 q 359 430 396 466 q 322 343 322 393 q 359 253 322 291 q 448 215 396 215 q 534 254 498 215 q 570 345 570 292 z "},"9":{"ha":944,"x_min":44,"x_max":896,"o":"m 896 701 q 861 514 896 599 q 763 343 835 449 l 525 -14 l 173 -14 l 435 316 q 152 423 259 316 q 44 708 44 531 q 171 1008 44 887 q 475 1128 298 1128 q 773 1003 649 1128 q 896 701 896 877 m 616 708 q 573 813 616 769 q 468 856 529 856 q 364 812 408 856 q 320 705 320 767 q 364 605 320 646 q 468 564 408 564 q 573 606 529 564 q 616 708 616 648 z "},"×":{"ha":0,"x_min":0,"x_max":0,"o":""}," ":{"ha":366,"x_min":0,"x_max":0,"o":""},"!":{"ha":344,"x_min":47,"x_max":302,"o":"m 302 363 l 47 363 l 47 1107 l 302 1107 l 302 363 m 302 0 l 47 0 l 47 252 l 302 252 l 302 0 z "},"\"":{"ha":674,"x_min":42,"x_max":630,"o":"m 630 593 l 375 593 l 375 1107 l 630 1107 l 630 593 m 298 593 l 42 593 l 42 1107 l 298 1107 l 298 593 z "},"#":{"ha":886,"x_min":37,"x_max":834,"o":"m 834 630 l 645 630 l 625 474 l 789 474 l 789 363 l 606 363 l 553 0 l 438 0 l 489 363 l 335 363 l 283 1 l 168 1 l 219 362 l 37 362 l 37 476 l 236 476 l 263 630 l 83 630 l 83 744 l 279 744 l 329 1086 l 446 1086 l 393 741 l 547 741 l 599 1087 l 713 1087 l 663 741 l 834 741 l 834 630 m 528 631 l 374 631 l 351 474 l 504 474 l 528 631 z "},"$":{"ha":863,"x_min":42,"x_max":821,"o":"m 821 313 q 740 95 821 185 q 524 -28 660 5 l 524 -245 l 303 -245 l 303 7 l 287 16 q 277 23 282 19 q 266 32 272 27 l 266 0 l 56 0 l 56 360 l 304 360 l 313 311 q 352 243 320 268 q 430 217 384 217 q 502 243 472 217 q 532 309 532 268 q 507 376 532 348 q 439 419 481 403 l 273 476 q 107 597 170 514 q 42 799 42 686 q 116 1002 42 911 q 306 1116 190 1092 l 306 1350 l 526 1350 l 526 1092 q 547 1083 536 1090 q 562 1068 558 1075 l 562 1107 l 754 1107 l 754 779 l 525 779 q 526 791 526 783 q 496 862 526 833 q 418 892 466 892 q 352 865 380 892 q 324 801 324 839 q 345 744 324 768 q 401 708 366 719 l 541 661 q 742 532 669 617 q 821 313 821 439 z "},"%":{"ha":1264,"x_min":69,"x_max":1191,"o":"m 498 708 q 436 563 498 623 q 289 503 375 503 q 134 565 199 503 q 69 716 69 627 l 69 896 q 133 1045 69 983 q 283 1107 196 1107 q 435 1044 373 1107 q 498 892 498 980 l 498 708 m 961 1107 l 492 0 l 302 0 l 773 1107 l 961 1107 m 1191 205 q 1129 60 1191 120 q 982 0 1068 0 q 828 62 893 0 q 763 213 763 125 l 763 392 q 826 541 763 478 q 976 605 889 605 q 1129 541 1066 605 q 1191 389 1191 477 l 1191 205 m 340 717 l 340 894 q 324 937 340 920 q 283 955 309 955 q 245 936 260 953 q 230 894 230 920 l 230 721 q 245 679 230 697 q 285 662 260 662 q 324 675 311 664 q 340 717 340 689 m 1033 215 l 1033 392 q 1018 435 1033 417 q 976 452 1002 452 q 938 434 953 450 q 923 392 923 417 l 923 218 q 938 176 923 194 q 978 159 953 159 q 1017 172 1004 162 q 1033 215 1033 187 z "},"&":{"ha":1097,"x_min":39,"x_max":1059,"o":"m 1059 430 l 967 430 q 943 375 958 402 q 898 304 925 338 l 1046 156 l 869 -25 l 738 103 q 576 0 674 33 q 406 -27 495 -27 q 152 58 257 -27 q 39 294 39 149 q 95 474 39 394 q 235 601 142 541 q 164 700 192 637 q 133 843 133 771 q 222 1056 133 971 q 438 1142 312 1142 q 647 1062 558 1142 q 736 866 736 982 q 679 695 736 778 q 591 605 640 638 l 717 486 l 797 665 l 1059 665 l 1059 430 m 494 855 q 477 901 494 881 q 437 921 461 921 q 395 901 411 921 q 379 851 379 880 q 387 812 379 829 q 410 777 392 801 l 435 742 l 463 779 q 486 816 479 800 q 494 855 494 832 m 551 282 l 391 437 q 336 392 359 424 q 310 318 310 356 q 324 268 310 292 q 364 232 339 245 q 419 220 388 220 q 492 237 456 220 q 551 282 528 254 z "},"'":{"ha":350,"x_min":42,"x_max":297,"o":"m 297 593 l 42 593 l 42 1107 l 297 1107 l 297 593 z "},"(":{"ha":637,"x_min":40,"x_max":590,"o":"m 590 -415 q 331 -264 449 -362 q 125 -11 199 -155 q 40 344 40 153 q 185 826 40 619 q 590 1129 330 1033 l 590 803 q 402 615 467 726 q 338 360 338 504 q 401 106 338 214 q 590 -77 463 -1 l 590 -415 z "},")":{"ha":636,"x_min":50,"x_max":600,"o":"m 600 338 q 516 -17 600 145 q 310 -271 442 -161 q 50 -421 192 -367 l 50 -82 q 301 355 301 67 q 238 608 301 498 q 50 798 174 718 l 50 1123 q 454 821 309 1029 q 600 338 600 613 z "},"*":{"ha":559,"x_min":47,"x_max":517,"o":"m 517 816 l 383 816 l 447 708 l 339 654 l 282 765 l 208 648 l 104 718 l 171 816 l 47 816 l 47 927 l 171 927 l 104 1037 l 218 1097 l 282 987 l 363 1111 l 470 1037 l 390 930 l 517 930 l 517 816 z "},"+":{"ha":847,"x_min":48,"x_max":798,"o":"m 798 310 l 489 310 l 489 -4 l 352 -4 l 352 308 l 48 308 l 48 449 l 352 449 l 352 759 l 488 759 l 488 449 l 798 449 l 798 310 z "},",":{"ha":354,"x_min":47,"x_max":310,"o":"m 310 -42 q 301 -128 310 -91 q 267 -195 291 -165 q 188 -243 240 -228 q 96 -254 149 -254 l 60 -254 l 60 -121 l 86 -121 q 150 -91 126 -121 q 161 -68 158 -80 q 164 -39 164 -55 q 164 -19 164 -26 l 164 0 l 47 0 l 47 262 l 310 262 l 310 -42 z "},"-":{"ha":429,"x_min":43,"x_max":389,"o":"m 389 410 l 43 410 l 43 577 l 389 578 l 389 410 z "},".":{"ha":344,"x_min":47,"x_max":306,"o":"m 306 0 l 47 0 l 47 265 l 306 265 l 306 0 z "},"/":{"ha":812,"x_min":-80,"x_max":803,"o":"m 803 1219 l 115 -419 l -80 -419 l 618 1219 l 803 1219 z "},":":{"ha":348,"x_min":42,"x_max":301,"o":"m 301 386 l 42 386 l 42 652 l 301 652 l 301 386 m 301 0 l 42 0 l 42 265 l 301 265 l 301 0 z "},";":{"ha":353,"x_min":47,"x_max":310,"o":"m 306 386 l 47 386 l 47 652 l 306 652 l 306 386 m 310 -42 q 301 -128 310 -91 q 267 -195 291 -165 q 188 -243 240 -228 q 96 -254 149 -254 l 60 -254 l 60 -121 l 86 -121 q 150 -91 126 -121 q 161 -68 158 -80 q 164 -39 164 -55 q 164 -19 164 -26 l 164 0 l 47 0 l 47 262 l 310 262 l 310 -42 z "},"<":{"ha":867,"x_min":42,"x_max":818,"o":"m 818 730 l 157 430 l 813 134 l 813 0 l 42 359 l 42 505 l 818 870 l 818 730 z "},"=":{"ha":852,"x_min":47,"x_max":813,"o":"m 813 468 l 47 468 l 47 612 l 813 612 l 813 468 m 812 234 l 47 234 l 47 376 l 812 376 l 812 234 z "},">":{"ha":857,"x_min":36,"x_max":812,"o":"m 812 357 l 41 -2 l 41 132 l 696 428 l 36 729 l 36 868 l 812 504 l 812 357 z "},"?":{"ha":862,"x_min":49,"x_max":824,"o":"m 824 773 q 802 640 824 698 q 729 537 780 582 l 657 471 q 602 413 626 444 q 582 378 589 396 q 569 336 574 359 l 306 336 l 306 369 q 315 429 306 400 q 339 484 323 458 q 373 530 353 505 q 411 570 393 555 l 512 659 q 545 701 532 677 q 558 754 558 726 q 525 834 558 800 q 446 868 492 868 q 361 836 394 868 q 328 754 328 803 l 327 736 l 49 736 q 164 1018 49 899 q 441 1138 279 1138 q 709 1030 595 1138 q 824 773 824 921 m 572 0 l 307 0 l 307 264 l 572 264 l 572 0 z "},"@":{"ha":1083,"x_min":51,"x_max":1038,"o":"m 1038 606 q 939 328 1038 450 q 704 206 839 206 q 618 263 646 206 q 602 319 609 282 l 560 273 q 427 211 507 211 q 292 276 345 211 q 239 430 239 341 q 348 654 239 558 q 549 742 447 742 q 617 726 588 742 q 657 678 646 711 l 671 639 l 699 725 l 819 727 l 710 328 q 705 290 705 311 q 711 257 705 269 q 732 245 717 245 q 890 357 818 245 q 963 595 963 470 q 837 852 963 756 q 557 939 723 939 q 253 812 379 939 q 126 508 126 686 q 255 190 126 322 q 569 59 384 59 q 799 110 702 59 q 911 207 866 146 q 940 258 925 232 l 1032 258 q 992 189 1012 223 q 847 58 932 107 q 566 -13 726 -13 q 202 138 353 -13 q 51 503 51 289 q 200 861 51 712 q 557 1011 348 1011 q 889 900 748 1011 q 1038 606 1038 782 m 644 583 q 623 671 644 637 q 562 706 602 706 q 429 591 494 706 q 364 366 364 476 q 384 289 364 319 q 458 252 410 252 q 589 377 528 252 q 644 583 644 490 z "},"A":{"ha":1250,"x_min":47,"x_max":1198,"o":"m 1198 0 l 699 0 l 699 212 l 789 212 l 752 302 l 457 302 l 426 215 l 537 215 l 537 0 l 47 0 l 47 242 l 144 242 l 400 869 l 299 869 l 299 1107 l 728 1107 l 1084 242 l 1198 242 l 1198 0 m 685 521 l 605 773 l 521 521 l 685 521 z "},"B":{"ha":1009,"x_min":38,"x_max":958,"o":"m 958 306 q 855 88 958 176 q 615 0 753 0 l 38 0 l 38 242 l 159 242 l 159 869 l 38 869 l 38 1107 l 639 1107 q 832 1031 754 1107 q 911 833 911 954 q 877 695 911 753 q 770 607 840 632 q 913 487 866 567 q 958 306 958 413 m 654 782 q 615 852 654 830 q 532 869 585 869 l 438 869 l 438 696 l 528 696 q 613 713 581 696 q 654 782 654 736 m 680 359 q 641 445 680 416 q 551 470 607 470 l 438 470 l 438 242 l 549 242 q 639 275 599 242 q 680 359 680 309 z "},"C":{"ha":1226,"x_min":47,"x_max":1181,"o":"m 1181 403 q 978 89 1129 205 q 621 -27 827 -27 q 216 141 385 -27 q 47 544 47 310 q 216 951 47 781 q 621 1121 385 1121 q 808 1079 721 1121 q 913 987 889 1041 l 913 1107 l 1148 1107 l 1148 678 l 876 678 q 625 833 796 833 q 418 752 501 833 q 336 554 336 671 q 418 347 336 434 q 617 259 500 259 q 767 295 703 259 q 873 403 830 330 l 1181 403 z "},"D":{"ha":1185,"x_min":47,"x_max":1148,"o":"m 1148 568 q 1013 171 1148 327 q 611 0 866 0 l 47 0 l 47 242 l 152 242 l 152 869 l 47 869 l 47 1107 l 617 1107 q 1009 948 862 1107 q 1148 568 1148 797 m 866 547 q 791 766 866 684 q 551 856 708 856 l 453 856 l 453 259 l 625 259 q 805 348 737 259 q 866 547 866 430 z "},"E":{"ha":939,"x_min":42,"x_max":895,"o":"m 895 749 l 626 749 l 626 853 l 442 853 l 442 699 l 694 699 l 694 437 l 442 437 l 442 252 l 626 252 l 626 386 l 892 386 l 892 0 l 42 0 l 42 242 l 147 242 l 147 869 l 42 869 l 42 1107 l 895 1107 l 895 749 z "},"F":{"ha":939,"x_min":42,"x_max":895,"o":"m 895 742 l 620 742 l 620 855 l 438 855 l 438 685 l 691 685 l 691 423 l 442 423 l 442 242 l 555 242 l 555 0 l 42 0 l 42 242 l 147 242 l 147 869 l 42 869 l 42 1107 l 895 1107 l 895 742 z "},"G":{"ha":1207,"x_min":38,"x_max":1159,"o":"m 1159 0 l 921 0 l 921 94 q 801 13 890 50 q 612 -23 713 -23 q 207 146 376 -23 q 38 551 38 315 q 208 956 38 787 q 615 1124 377 1124 q 765 1102 699 1124 q 901 1031 824 1082 l 901 1107 l 1133 1107 l 1133 736 l 827 736 q 742 802 799 772 q 608 839 673 839 q 405 756 489 839 q 320 554 320 672 q 405 353 320 437 q 608 269 490 269 q 742 297 686 269 q 844 386 798 325 l 535 386 l 535 625 l 1159 625 l 1159 0 z "},"H":{"ha":1210,"x_min":42,"x_max":1173,"o":"m 1173 0 l 673 0 l 673 242 l 781 242 l 781 427 l 439 427 l 439 242 l 546 242 l 546 0 l 42 0 l 42 242 l 160 242 l 160 869 l 42 869 l 42 1107 l 546 1107 l 546 869 l 439 869 l 439 701 l 781 701 l 781 869 l 673 869 l 673 1107 l 1173 1107 l 1173 869 l 1072 869 l 1072 242 l 1173 242 l 1173 0 z "},"I":{"ha":594,"x_min":42,"x_max":552,"o":"m 552 0 l 42 0 l 42 242 l 153 242 l 153 869 l 42 869 l 42 1107 l 552 1107 l 552 869 l 439 869 l 439 242 l 552 242 l 552 0 z "},"J":{"ha":932,"x_min":47,"x_max":883,"o":"m 883 869 l 782 869 l 782 285 q 663 58 782 148 q 402 -27 552 -27 q 156 59 260 -27 q 47 282 47 149 l 47 353 l 344 353 l 344 316 q 365 254 344 280 q 420 228 386 228 q 480 255 457 228 q 504 326 504 282 l 504 869 l 389 869 l 389 1107 l 883 1107 l 883 869 z "},"K":{"ha":1183,"x_min":47,"x_max":1134,"o":"m 1134 0 l 607 0 l 607 232 l 691 232 l 437 484 l 437 232 l 537 232 l 537 0 l 47 0 l 47 242 l 152 242 l 152 869 l 47 869 l 47 1107 l 527 1107 l 527 869 l 437 869 l 437 638 l 685 869 l 607 869 l 607 1107 l 1107 1107 l 1107 869 l 1044 869 l 699 564 l 1041 242 l 1134 242 l 1134 0 z "},"L":{"ha":939,"x_min":42,"x_max":895,"o":"m 895 0 l 42 0 l 42 242 l 157 242 l 157 869 l 42 869 l 42 1107 l 536 1107 l 536 869 l 439 869 l 439 259 l 630 259 l 630 410 l 895 410 l 895 0 z "},"M":{"ha":1487,"x_min":42,"x_max":1441,"o":"m 1441 0 l 962 0 l 962 242 l 1066 242 l 1066 701 l 834 0 l 643 0 l 415 691 l 415 242 l 519 242 l 519 0 l 42 0 l 42 242 l 153 242 l 153 869 l 42 869 l 42 1107 l 515 1107 l 747 450 l 952 1107 l 1435 1107 l 1435 869 l 1331 869 l 1331 242 l 1441 242 l 1441 0 z "},"N":{"ha":1249,"x_min":36,"x_max":1204,"o":"m 1204 869 l 1100 869 l 1100 0 l 842 0 l 422 591 l 422 242 l 532 242 l 532 0 l 42 0 l 42 242 l 147 242 l 147 869 l 36 869 l 36 1107 l 388 1107 l 821 497 l 821 869 l 704 869 l 704 1107 l 1204 1107 l 1204 869 z "},"O":{"ha":1232,"x_min":46,"x_max":1194,"o":"m 1194 560 q 1025 147 1194 320 q 616 -27 856 -27 q 213 134 375 -27 q 46 554 46 299 q 215 957 46 790 q 620 1124 384 1124 q 1024 959 855 1124 q 1194 560 1194 794 m 905 547 q 823 750 905 664 q 624 836 741 836 q 418 751 504 836 q 331 547 331 666 q 414 344 331 430 q 613 259 496 259 q 819 343 733 259 q 905 547 905 428 z "},"P":{"ha":988,"x_min":47,"x_max":953,"o":"m 953 726 q 856 463 953 564 q 570 356 752 356 l 447 356 l 447 242 l 537 242 l 537 0 l 47 0 l 47 242 l 162 242 l 162 869 l 47 869 l 47 1107 l 547 1107 q 855 997 747 1107 q 953 726 953 896 m 678 732 q 634 827 678 793 q 533 856 594 856 l 443 856 l 443 605 l 507 605 q 624 631 579 605 q 678 732 678 663 z "},"Q":{"ha":1421,"x_min":47,"x_max":1380,"o":"m 1380 -23 q 1248 -43 1312 -43 q 1167 -36 1207 -43 q 1086 -13 1127 -28 q 1006 27 1045 2 q 943 74 978 45 q 799 4 874 29 q 615 -27 708 -27 q 213 148 379 -27 q 47 564 47 323 q 221 964 47 800 q 634 1128 394 1128 q 1034 962 866 1128 q 1202 564 1202 796 q 1182 390 1202 462 q 1107 236 1161 319 q 1119 227 1116 228 q 1133 218 1125 222 q 1150 212 1142 215 q 1171 208 1159 208 l 1171 296 l 1380 296 l 1380 -23 m 920 544 q 921 556 921 550 q 921 567 921 563 q 836 763 921 680 q 634 846 751 846 q 439 781 523 846 q 336 607 356 716 q 411 627 375 621 q 484 634 448 634 q 541 631 509 634 q 745 560 648 621 q 886 433 830 508 q 911 490 903 466 q 920 544 920 514 m 718 279 q 675 328 702 304 q 615 369 648 351 q 488 403 551 403 q 390 376 434 403 q 523 279 447 305 q 621 261 575 261 q 668 264 647 261 q 718 279 689 268 z "},"R":{"ha":1048,"x_min":47,"x_max":1007,"o":"m 1007 0 l 718 0 l 447 376 l 447 242 l 510 242 l 510 0 l 47 0 l 47 242 l 162 242 l 162 869 l 47 869 l 47 1107 l 547 1107 q 878 1002 762 1107 q 990 722 990 900 q 917 485 990 573 q 765 396 856 412 l 890 242 l 1007 242 l 1007 0 m 712 705 q 648 832 712 795 q 533 856 606 856 l 443 856 l 443 558 l 523 558 q 650 587 602 558 q 712 705 712 624 z "},"S":{"ha":851,"x_min":40,"x_max":815,"o":"m 815 319 q 711 75 815 178 q 467 -27 606 -27 q 280 37 367 -27 l 280 0 l 51 0 l 51 356 l 303 356 l 303 329 q 344 238 303 271 q 423 211 378 211 q 437 212 432 211 q 506 247 478 217 q 534 319 534 278 q 504 381 534 356 q 437 416 483 400 l 266 480 q 100 599 161 519 q 40 787 40 679 q 142 1025 40 928 q 391 1123 244 1123 q 476 1110 439 1123 q 558 1068 513 1097 l 558 1107 l 769 1107 l 769 779 l 518 779 q 519 791 519 782 q 487 860 519 831 q 413 890 455 890 q 347 861 375 890 q 319 794 319 833 q 346 734 319 759 q 407 699 367 712 l 544 652 q 738 532 670 610 q 815 319 815 446 z "},"T":{"ha":1013,"x_min":42,"x_max":969,"o":"m 969 722 l 754 722 l 754 856 l 650 856 l 650 242 l 757 242 l 757 0 l 264 0 l 264 242 l 368 242 l 368 856 l 264 856 l 264 718 l 42 718 l 42 1107 l 969 1107 l 969 722 z "},"U":{"ha":1115,"x_min":42,"x_max":1077,"o":"m 1077 869 l 969 869 l 969 376 q 855 91 969 206 q 556 -27 736 -27 q 247 85 357 -27 q 143 363 143 190 l 143 869 l 42 869 l 42 1107 l 493 1107 l 493 869 l 421 869 l 421 383 q 463 286 421 326 q 563 245 505 245 q 660 289 620 245 q 700 393 700 333 l 700 869 l 613 869 l 613 1107 l 1077 1107 l 1077 869 z "},"V":{"ha":1168,"x_min":42,"x_max":1116,"o":"m 1116 869 l 1012 869 l 714 0 l 415 0 l 143 869 l 42 869 l 42 1107 l 519 1107 l 519 869 l 445 869 l 576 400 l 730 869 l 646 869 l 646 1107 l 1116 1107 l 1116 869 z "},"W":{"ha":1621,"x_min":47,"x_max":1574,"o":"m 1574 869 l 1464 869 l 1232 0 l 987 0 l 812 605 l 641 0 l 390 0 l 141 869 l 47 869 l 47 1107 l 542 1107 l 542 869 l 430 869 l 526 495 l 691 1107 l 924 1107 l 1106 499 l 1190 869 l 1086 869 l 1086 1107 l 1573 1107 l 1574 869 z "},"X":{"ha":1209,"x_min":47,"x_max":1165,"o":"m 1165 0 l 662 0 l 662 238 l 732 238 l 607 376 l 494 236 l 558 236 l 558 0 l 47 0 l 47 242 l 152 242 l 442 566 l 181 869 l 74 869 l 74 1107 l 570 1107 l 570 883 l 510 883 l 617 762 l 718 883 l 662 883 l 662 1107 l 1161 1107 l 1161 869 l 1064 869 l 787 568 l 1054 242 l 1165 242 l 1165 0 z "},"Y":{"ha":1095,"x_min":42,"x_max":1052,"o":"m 1052 869 l 958 869 l 683 400 l 683 242 l 781 242 l 781 0 l 287 0 l 287 242 l 404 242 l 404 390 l 146 869 l 42 869 l 42 1107 l 499 1107 l 499 876 l 431 876 l 549 631 l 677 876 l 599 876 l 599 1107 l 1052 1107 l 1052 869 z "},"Z":{"ha":929,"x_min":42,"x_max":882,"o":"m 882 0 l 42 0 l 42 225 l 540 869 l 331 869 l 331 738 l 83 738 l 83 1107 l 878 1107 l 878 893 l 385 242 l 620 242 l 620 376 l 882 376 l 882 0 z "},"[":{"ha":541,"x_min":35,"x_max":486,"o":"m 486 -191 l 35 -191 l 35 1105 l 481 1105 l 481 927 l 244 927 l 244 -14 l 486 -14 l 486 -191 z "},"\\":{"ha":693,"x_min":47,"x_max":651,"o":"m 651 0 l 496 0 l 47 1100 l 199 1100 l 651 0 z "},"]":{"ha":541,"x_min":38,"x_max":490,"o":"m 490 -191 l 38 -191 l 38 -14 l 281 -14 l 281 927 l 42 927 l 42 1105 l 490 1105 l 490 -191 z "},"^":{"ha":607,"x_min":47,"x_max":578,"o":"m 578 943 l 386 943 l 316 1084 l 252 943 l 47 943 l 211 1235 l 430 1235 l 578 943 z "},"_":{"ha":963,"x_min":0,"x_max":969,"o":"m 969 -180 l 0 -180 l 0 -88 l 969 -88 l 969 -180 z "},"`":{"ha":542,"x_min":44,"x_max":500,"o":"m 500 1124 l 437 943 l 44 1068 l 121 1282 l 500 1124 z "},"a":{"ha":1078,"x_min":42,"x_max":1036,"o":"m 1036 -4 l 689 -4 l 689 60 q 589 4 635 22 q 482 -14 542 -14 q 171 108 299 -14 q 42 406 42 229 q 167 722 42 588 q 468 856 291 856 q 587 838 539 856 q 683 782 622 825 l 683 839 l 1036 839 l 1036 607 l 945 607 l 945 242 l 1036 242 l 1036 -4 m 689 416 q 634 556 689 497 q 499 615 578 615 q 362 561 421 615 q 304 430 304 507 q 358 288 304 347 q 492 228 412 228 q 631 282 572 228 q 689 416 689 337 z "},"b":{"ha":1065,"x_min":38,"x_max":1022,"o":"m 1022 420 q 900 119 1022 245 q 602 -7 778 -7 q 484 18 536 -7 q 384 91 441 39 l 384 0 l 38 0 l 38 242 l 125 242 l 125 866 l 38 866 l 38 1107 l 374 1107 l 374 769 q 467 828 417 806 q 592 856 530 856 q 894 727 766 856 q 1022 420 1022 597 m 770 420 q 713 564 770 503 q 575 625 657 625 q 435 567 494 625 q 377 430 377 510 q 437 287 377 347 q 582 228 497 228 q 714 285 659 228 q 770 420 770 341 z "},"c":{"ha":953,"x_min":42,"x_max":911,"o":"m 911 302 q 780 79 900 181 q 499 -27 654 -27 q 176 108 310 -27 q 42 433 42 244 q 162 730 42 604 q 445 856 281 856 q 573 837 514 856 q 666 787 625 819 l 666 839 l 884 839 l 884 534 l 643 534 q 481 615 589 615 q 348 555 402 615 q 294 413 294 495 q 349 281 294 337 q 482 225 404 225 q 572 243 534 225 q 640 302 610 262 l 911 302 z "},"d":{"ha":1095,"x_min":50,"x_max":1056,"o":"m 1056 0 l 704 0 l 704 78 q 605 14 646 32 q 489 -7 554 -7 q 180 119 310 -7 q 50 423 50 245 q 176 731 50 604 q 486 859 301 859 q 610 835 549 859 q 697 782 663 813 l 697 866 l 610 866 l 610 1107 l 962 1107 l 962 242 l 1056 242 l 1056 0 m 704 430 q 645 568 704 511 q 505 625 587 625 q 368 563 425 625 q 311 420 311 502 q 366 285 311 342 q 499 228 421 228 q 643 287 583 228 q 704 430 704 346 z "},"e":{"ha":973,"x_min":42,"x_max":933,"o":"m 925 312 l 297 312 q 372 220 323 252 q 488 189 421 189 q 579 212 537 189 q 633 245 582 214 l 894 245 q 734 43 839 114 q 486 -27 628 -27 q 173 101 304 -27 q 42 410 42 229 q 175 727 42 595 q 492 859 307 859 q 803 722 672 859 q 933 399 933 584 q 925 312 933 356 m 677 507 q 596 598 648 568 q 475 628 544 628 q 369 596 414 628 q 297 507 324 564 l 677 507 z "},"f":{"ha":532,"x_min":42,"x_max":489,"o":"m 489 930 q 444 926 460 930 q 412 911 428 923 q 393 883 397 899 q 388 839 388 867 l 477 839 l 477 607 l 387 607 l 387 242 l 481 242 l 481 0 l 42 0 l 42 242 l 126 242 l 126 607 l 42 607 l 42 839 l 134 839 l 134 853 q 153 962 134 907 q 224 1074 178 1030 q 355 1141 275 1124 q 489 1152 404 1152 l 489 930 z "},"g":{"ha":1055,"x_min":42,"x_max":1009,"o":"m 1009 607 l 921 607 l 921 60 q 793 -236 921 -124 q 495 -343 672 -343 q 199 -254 314 -343 q 82 -54 97 -173 l 367 -54 q 424 -108 391 -91 q 502 -125 457 -125 q 630 -75 583 -125 q 677 64 677 -25 q 590 6 647 27 q 472 -17 542 -11 q 453 -19 461 -18 q 439 -19 445 -19 q 160 113 277 -19 q 42 416 42 245 q 170 722 42 595 q 475 849 297 849 q 591 828 542 849 q 687 765 625 812 l 687 839 l 1009 839 l 1009 607 m 687 420 q 629 557 687 500 q 492 615 572 615 q 352 559 411 615 q 294 423 294 504 q 353 277 294 339 q 495 215 412 215 q 631 276 576 215 q 687 420 687 337 z "},"h":{"ha":1044,"x_min":47,"x_max":1004,"o":"m 1004 0 l 658 0 l 658 490 q 620 583 658 545 q 523 621 582 621 q 429 578 467 621 q 390 476 390 534 l 390 242 l 484 242 l 484 0 l 47 0 l 47 242 l 141 242 l 141 866 l 47 866 l 47 1107 l 383 1107 l 383 755 q 474 824 407 792 q 617 859 547 859 q 829 759 743 859 q 913 531 913 662 l 913 242 l 1004 242 l 1004 0 z "},"i":{"ha":528,"x_min":47,"x_max":484,"o":"m 383 880 l 141 880 l 141 1107 l 383 1107 l 383 880 m 484 0 l 47 0 l 47 242 l 141 242 l 141 607 l 47 607 l 47 839 l 390 839 l 390 242 l 484 242 l 484 0 z "},"j":{"ha":442,"x_min":23,"x_max":390,"o":"m 383 880 l 141 880 l 141 1107 l 383 1107 l 383 880 m 390 23 q 378 -124 390 -80 q 294 -246 359 -194 q 178 -301 250 -283 q 23 -318 106 -318 l 23 -84 q 44 -86 31 -86 q 83 -78 64 -86 q 113 -60 103 -70 q 135 -22 129 -42 q 141 27 141 -2 l 141 607 l 47 607 l 47 839 l 390 839 l 390 23 z "},"k":{"ha":997,"x_min":47,"x_max":953,"o":"m 953 0 l 675 0 l 402 349 l 402 0 l 47 0 l 47 242 l 144 242 l 144 866 l 47 866 l 47 1107 l 396 1107 l 396 476 l 551 634 l 476 634 l 476 839 l 913 839 l 913 607 l 843 607 l 662 427 l 836 242 l 953 242 l 953 0 z "},"l":{"ha":523,"x_min":47,"x_max":484,"o":"m 484 -4 l 47 -4 l 47 242 l 141 242 l 141 866 l 47 866 l 47 1107 l 396 1107 l 396 242 l 484 242 l 484 -4 z "},"m":{"ha":1537,"x_min":42,"x_max":1499,"o":"m 1499 0 l 1163 0 l 1163 470 q 1137 583 1163 543 q 1026 634 1104 634 q 937 588 972 634 q 902 484 902 542 l 902 242 l 989 242 l 989 0 l 653 0 l 653 484 q 616 582 653 540 q 526 625 579 625 q 434 577 469 625 q 398 467 398 529 l 398 242 l 479 242 l 479 0 l 42 0 l 42 242 l 143 242 l 143 607 l 42 607 l 42 839 l 368 839 l 368 742 q 458 834 412 805 q 579 866 510 866 q 757 817 682 866 q 838 708 826 772 q 1114 866 927 866 q 1325 786 1235 866 q 1415 588 1415 705 l 1415 242 l 1499 242 l 1499 0 z "},"n":{"ha":1058,"x_min":47,"x_max":1017,"o":"m 1017 0 l 665 0 l 665 484 q 644 578 665 545 q 553 622 617 622 q 533 621 541 622 q 439 571 476 615 q 402 467 402 527 l 402 242 l 484 242 l 484 0 l 47 0 l 47 242 l 148 242 l 148 607 l 47 607 l 47 839 l 400 839 l 400 755 q 495 833 439 810 q 628 856 551 856 q 867 748 791 856 q 930 514 930 660 l 930 242 l 1017 242 l 1017 0 z "},"o":{"ha":969,"x_min":42,"x_max":929,"o":"m 929 406 q 795 99 929 226 q 478 -27 662 -27 q 170 103 298 -27 q 42 416 42 234 q 175 725 42 597 q 492 853 308 853 q 800 721 671 853 q 929 406 929 588 m 673 423 q 617 554 673 500 q 482 607 560 607 q 350 546 403 607 q 297 403 297 486 q 353 275 297 328 q 486 222 409 222 q 619 280 565 222 q 673 423 673 338 z "},"p":{"ha":1093,"x_min":42,"x_max":1046,"o":"m 1046 427 q 926 122 1046 252 q 636 -7 807 -7 q 508 14 567 -7 q 398 74 449 34 l 398 -44 l 482 -44 l 482 -279 l 42 -279 l 42 -44 l 130 -44 l 132 607 l 42 607 l 42 839 l 378 839 l 378 755 q 620 853 483 853 q 921 727 795 853 q 1046 427 1046 602 m 785 421 q 727 561 785 503 q 587 620 670 620 q 451 564 508 620 q 393 428 393 507 q 453 284 393 341 q 596 227 512 227 q 729 284 673 227 q 785 421 785 342 z "},"q":{"ha":1083,"x_min":48,"x_max":1039,"o":"m 1039 -285 l 606 -285 l 606 -51 l 692 -51 l 692 68 q 586 9 643 29 q 458 -10 529 -10 q 167 119 286 -10 q 48 423 48 247 q 172 722 48 597 q 471 846 296 846 q 596 822 537 846 q 686 765 654 799 l 686 839 l 1039 839 l 1039 607 l 951 607 l 951 -51 l 1039 -51 l 1039 -285 m 697 421 q 641 557 697 500 q 504 614 585 614 q 365 555 423 614 q 306 414 306 496 q 361 277 306 334 q 495 219 417 219 q 638 277 579 219 q 697 421 697 335 z "},"r":{"ha":661,"x_min":42,"x_max":613,"o":"m 613 596 q 527 583 561 596 q 459 541 492 569 q 411 476 427 514 q 394 400 394 439 l 394 242 l 478 242 l 478 0 l 42 0 l 42 242 l 129 242 l 129 607 l 42 607 l 42 839 l 378 839 l 378 736 q 414 777 395 759 q 465 816 437 799 q 536 847 504 838 q 613 856 568 856 l 613 596 z "},"s":{"ha":805,"x_min":51,"x_max":766,"o":"m 766 269 q 687 65 766 145 q 467 -19 604 -19 q 349 -4 397 -19 q 250 52 301 12 l 250 0 l 51 0 l 51 255 l 311 255 l 322 224 q 352 179 331 196 q 402 162 374 162 q 414 163 410 162 q 459 180 441 167 q 481 220 481 197 q 458 273 484 252 q 397 302 437 291 l 238 349 q 102 439 152 375 q 51 596 51 504 q 137 784 51 712 q 359 856 223 856 q 464 846 421 856 q 538 804 507 835 l 538 839 l 725 839 l 725 596 l 479 596 l 473 617 q 446 654 466 640 q 402 668 427 668 q 357 653 376 668 q 338 613 338 638 q 358 569 338 588 q 404 547 375 554 l 506 523 q 688 436 621 494 q 766 269 766 368 z "},"t":{"ha":578,"x_min":42,"x_max":535,"o":"m 535 607 l 425 607 l 425 242 l 515 242 l 515 0 l 160 0 l 160 607 l 42 607 l 42 839 l 156 839 l 156 1107 l 412 1107 l 412 839 l 535 839 l 535 607 z "},"u":{"ha":1022,"x_min":42,"x_max":976,"o":"m 976 0 l 653 0 l 653 81 q 435 -14 577 -14 q 210 77 301 -14 q 119 309 119 167 l 119 607 l 42 607 l 42 839 l 378 839 l 378 349 q 408 257 378 291 q 505 218 441 218 q 604 260 570 218 q 633 356 633 296 l 633 607 l 539 607 l 539 839 l 888 839 l 888 242 l 976 242 l 976 0 z "},"v":{"ha":959,"x_min":47,"x_max":916,"o":"m 916 607 l 843 607 l 597 0 l 346 0 l 121 607 l 47 607 l 47 839 l 437 839 l 437 607 l 390 607 l 476 326 l 570 607 l 521 607 l 521 839 l 916 839 l 916 607 z "},"w":{"ha":1383,"x_min":47,"x_max":1336,"o":"m 1336 607 l 1249 607 l 1044 0 l 809 0 l 678 416 l 523 0 l 295 0 l 128 607 l 47 607 l 47 839 l 443 839 l 443 607 l 373 607 l 437 369 l 581 839 l 782 839 l 927 373 l 997 607 l 933 607 l 933 839 l 1336 839 l 1336 607 z "},"x":{"ha":1004,"x_min":47,"x_max":960,"o":"m 960 0 l 578 0 l 578 199 l 504 265 l 430 191 l 430 0 l 47 0 l 47 242 l 125 242 l 329 427 l 138 607 l 60 607 l 60 839 l 437 839 l 437 652 l 510 594 l 578 654 l 578 839 l 950 839 l 950 607 l 876 607 l 681 427 l 886 242 l 960 242 l 960 0 z "},"y":{"ha":988,"x_min":38,"x_max":941,"o":"m 941 607 l 864 607 l 588 -57 l 669 -57 l 669 -292 l 253 -292 l 253 -60 l 327 -60 l 360 27 l 129 607 l 38 607 l 38 839 l 451 839 l 451 597 l 404 597 l 491 343 l 585 597 l 541 597 l 541 839 l 941 839 l 941 607 z "},"z":{"ha":813,"x_min":47,"x_max":773,"o":"m 773 0 l 47 0 l 47 199 l 447 607 l 289 607 l 289 551 l 68 551 l 68 839 l 752 839 l 752 615 l 390 228 l 558 228 l 558 296 l 773 296 l 773 0 z "},"{":{"ha":505,"x_min":22,"x_max":455,"o":"m 455 1116 q 387 1087 423 1114 q 348 1047 356 1064 q 334 1013 339 1031 q 328 974 328 995 l 328 634 q 317 582 328 604 q 279 536 305 560 q 233 508 262 521 q 175 495 205 495 q 245 473 203 495 q 281 451 258 466 q 315 403 305 427 q 324 347 324 380 l 324 23 q 361 -75 324 -32 q 454 -127 397 -118 q 435 -130 452 -128 q 403 -131 418 -131 q 269 -113 325 -131 q 198 -72 224 -98 q 154 33 154 -27 l 154 378 q 147 422 154 404 q 120 455 139 440 q 68 483 95 472 q 22 494 41 494 q 75 509 51 496 q 115 540 100 523 q 143 578 134 561 q 153 610 153 595 l 153 965 q 168 1032 153 1004 q 217 1078 184 1060 q 313 1111 264 1102 q 403 1121 361 1121 q 439 1119 425 1121 q 455 1116 454 1117 z "},"|":{"ha":210,"x_min":38,"x_max":158,"o":"m 158 1115 l 157 -125 l 39 -125 l 38 1115 l 158 1115 z "},"}":{"ha":502,"x_min":31,"x_max":464,"o":"m 464 491 q 410 475 435 487 q 371 445 384 462 q 348 418 355 428 q 332 375 332 394 l 332 19 q 316 -48 332 -19 q 267 -94 301 -77 q 165 -128 220 -117 q 80 -136 123 -136 q 51 -135 62 -136 q 31 -133 40 -134 q 98 -102 62 -129 q 138 -62 129 -79 q 151 -28 146 -45 q 156 10 156 -10 l 156 349 q 169 402 156 379 q 207 449 181 425 q 249 476 224 464 q 310 490 281 490 q 241 512 283 490 q 204 533 227 519 q 170 581 180 558 q 161 637 161 605 l 161 961 q 153 1014 161 992 q 125 1059 144 1036 q 32 1111 87 1104 q 85 1115 37 1115 q 217 1097 163 1115 q 288 1057 262 1083 q 331 951 331 1012 l 331 606 q 339 562 331 580 q 366 529 347 544 q 414 503 385 514 q 464 491 443 491 z "},"~":{"ha":646,"x_min":38,"x_max":602,"o":"m 602 997 q 530 960 561 972 q 454 940 498 948 q 423 938 438 938 q 335 954 391 938 q 251 971 279 971 q 232 970 242 971 q 207 966 222 969 q 180 958 192 962 q 138 940 169 955 l 38 1097 q 96 1125 70 1116 q 159 1142 121 1134 q 192 1144 177 1144 q 290 1126 227 1144 q 390 1107 353 1107 q 464 1121 427 1107 q 507 1138 473 1124 l 602 997 z "},"Ä":{"ha":1235,"x_min":42,"x_max":1193,"o":"m 1193 0 l 693 0 l 693 212 l 783 212 l 746 302 l 451 302 l 421 215 l 532 215 l 532 0 l 42 0 l 42 242 l 139 242 l 394 869 l 293 869 l 293 1107 l 723 1107 l 1078 242 l 1193 242 l 1193 0 m 680 521 l 599 773 l 515 521 l 680 521 m 837 1206 l 576 1206 l 576 1461 l 837 1461 l 837 1206 m 492 1206 l 230 1206 l 230 1461 l 492 1461 l 492 1206 z "},"Å":{"ha":1240,"x_min":47,"x_max":1198,"o":"m 777 1370 q 724 1241 777 1295 q 596 1188 671 1188 q 467 1242 521 1188 q 412 1372 412 1296 q 467 1500 412 1448 q 596 1552 521 1552 q 724 1499 671 1552 q 777 1370 777 1446 m 674 1370 q 652 1426 674 1402 q 596 1449 629 1449 q 540 1427 563 1449 q 516 1372 516 1404 q 539 1315 516 1338 q 596 1291 561 1291 q 651 1314 628 1291 q 674 1370 674 1337 m 1198 0 l 699 0 l 699 212 l 789 212 l 752 302 l 457 302 l 426 215 l 537 215 l 537 0 l 47 0 l 47 242 l 144 242 l 400 869 l 299 869 l 299 1107 l 728 1107 l 1084 242 l 1198 242 l 1198 0 m 685 521 l 605 773 l 521 521 l 685 521 z "},"Ç":{"ha":1225,"x_min":42,"x_max":1177,"o":"m 1177 403 q 1115 237 1154 303 q 997 106 1075 171 q 855 14 924 43 q 691 -23 786 -15 l 672 -70 q 802 -125 754 -70 q 847 -252 847 -175 q 789 -391 847 -331 q 649 -450 730 -450 q 505 -395 565 -450 q 446 -254 446 -340 l 590 -254 q 608 -288 595 -273 q 644 -302 622 -302 q 679 -288 664 -302 q 694 -254 694 -274 q 679 -215 694 -231 q 641 -199 663 -199 q 616 -205 626 -199 q 598 -224 606 -211 l 473 -175 l 532 -25 q 179 166 315 8 q 42 544 42 324 q 212 951 42 781 q 616 1121 381 1121 q 800 1080 716 1121 q 908 987 884 1040 l 908 1095 l 1143 1095 l 1143 678 l 871 678 q 619 833 791 833 q 416 751 502 833 q 331 554 331 670 q 413 347 331 434 q 613 259 495 259 q 763 295 699 259 q 868 403 827 330 l 1177 403 z "},"É":{"ha":941,"x_min":42,"x_max":895,"o":"m 895 749 l 626 749 l 626 853 l 442 853 l 442 699 l 694 699 l 694 437 l 442 437 l 442 252 l 626 252 l 626 386 l 892 386 l 892 0 l 42 0 l 42 242 l 147 242 l 147 869 l 42 869 l 42 1107 l 895 1107 l 895 749 m 742 1323 l 349 1198 l 285 1380 l 664 1538 l 742 1323 z "},"Ñ":{"ha":1256,"x_min":42,"x_max":1209,"o":"m 1209 869 l 1106 869 l 1106 0 l 847 0 l 428 591 l 428 242 l 538 242 l 538 0 l 48 0 l 48 242 l 153 242 l 153 869 l 42 869 l 42 1107 l 393 1107 l 827 497 l 827 869 l 709 869 l 709 1107 l 1209 1107 l 1209 869 m 907 1259 q 835 1221 866 1234 q 759 1202 803 1209 q 728 1199 743 1199 q 640 1216 696 1199 q 556 1233 584 1233 q 537 1232 547 1233 q 512 1227 527 1231 q 486 1220 497 1224 q 443 1202 474 1217 l 343 1359 q 401 1387 375 1378 q 464 1403 426 1396 q 497 1406 482 1406 q 595 1388 532 1406 q 695 1369 658 1369 q 769 1383 732 1369 q 812 1400 778 1386 l 907 1259 z "},"Ö":{"ha":1236,"x_min":46,"x_max":1194,"o":"m 1194 560 q 1025 147 1194 320 q 616 -27 856 -27 q 213 134 375 -27 q 46 554 46 299 q 215 957 46 790 q 620 1124 384 1124 q 1024 959 855 1124 q 1194 560 1194 794 m 905 547 q 823 750 905 664 q 624 836 741 836 q 418 751 504 836 q 331 547 331 666 q 414 344 331 430 q 613 259 496 259 q 819 343 733 259 q 905 547 905 428 m 942 1201 l 680 1201 l 680 1457 l 942 1457 l 942 1201 m 597 1201 l 335 1201 l 335 1457 l 597 1457 l 597 1201 z "},"Ü":{"ha":1114,"x_min":42,"x_max":1077,"o":"m 1077 869 l 969 869 l 969 376 q 855 91 969 206 q 556 -27 736 -27 q 247 85 357 -27 q 143 363 143 190 l 143 869 l 42 869 l 42 1107 l 493 1107 l 493 869 l 421 869 l 421 383 q 463 286 421 326 q 563 245 505 245 q 660 289 620 245 q 700 393 700 333 l 700 869 l 613 869 l 613 1107 l 1077 1107 l 1077 869 m 867 1210 l 606 1210 l 606 1466 l 867 1466 l 867 1210 m 522 1210 l 260 1210 l 260 1466 l 522 1466 l 522 1210 z "},"á":{"ha":1080,"x_min":42,"x_max":1036,"o":"m 1036 -4 l 689 -4 l 689 60 q 589 4 635 22 q 482 -14 542 -14 q 171 108 299 -14 q 42 406 42 229 q 167 722 42 588 q 468 856 291 856 q 587 838 539 856 q 683 782 622 825 l 683 839 l 1036 839 l 1036 607 l 945 607 l 945 242 l 1036 242 l 1036 -4 m 689 416 q 634 556 689 497 q 499 615 578 615 q 362 561 421 615 q 304 430 304 507 q 358 288 304 347 q 492 228 412 228 q 631 282 572 228 q 689 416 689 337 m 761 1107 l 368 983 l 304 1164 l 683 1322 l 761 1107 z "},"à":{"ha":1080,"x_min":42,"x_max":1036,"o":"m 1036 -4 l 689 -4 l 689 60 q 589 4 635 22 q 482 -14 542 -14 q 171 108 299 -14 q 42 406 42 229 q 167 722 42 588 q 468 856 291 856 q 587 838 539 856 q 683 782 622 825 l 683 839 l 1036 839 l 1036 607 l 945 607 l 945 242 l 1036 242 l 1036 -4 m 689 416 q 634 556 689 497 q 499 615 578 615 q 362 561 421 615 q 304 430 304 507 q 358 288 304 347 q 492 228 412 228 q 631 282 572 228 q 689 416 689 337 m 767 1163 l 704 982 l 311 1106 l 388 1321 l 767 1163 z "},"â":{"ha":1081,"x_min":42,"x_max":1036,"o":"m 842 982 l 651 982 l 580 1123 l 516 982 l 311 982 l 476 1274 l 694 1274 l 842 982 m 1036 -4 l 689 -4 l 689 60 q 589 4 635 22 q 482 -14 542 -14 q 171 108 299 -14 q 42 406 42 229 q 167 722 42 588 q 468 856 291 856 q 587 838 539 856 q 683 782 622 825 l 683 839 l 1036 839 l 1036 607 l 945 607 l 945 242 l 1036 242 l 1036 -4 m 689 416 q 634 556 689 497 q 499 615 578 615 q 362 561 421 615 q 304 430 304 507 q 358 288 304 347 q 492 228 412 228 q 631 282 572 228 q 689 416 689 337 z "},"ä":{"ha":1080,"x_min":42,"x_max":1036,"o":"m 1036 -4 l 689 -4 l 689 60 q 589 4 635 22 q 482 -14 542 -14 q 171 108 299 -14 q 42 406 42 229 q 167 722 42 588 q 468 856 291 856 q 587 838 539 856 q 683 782 622 825 l 683 839 l 1036 839 l 1036 607 l 945 607 l 945 242 l 1036 242 l 1036 -4 m 689 416 q 634 556 689 497 q 499 615 578 615 q 362 561 421 615 q 304 430 304 507 q 358 288 304 347 q 492 228 412 228 q 631 282 572 228 q 689 416 689 337 m 865 986 l 604 986 l 604 1242 l 865 1242 l 865 986 m 520 986 l 258 986 l 258 1242 l 520 1242 l 520 986 z "},"ã":{"ha":1076,"x_min":42,"x_max":1036,"o":"m 1036 -4 l 689 -4 l 689 60 q 589 4 635 22 q 482 -14 542 -14 q 171 108 299 -14 q 42 406 42 229 q 167 722 42 588 q 468 856 291 856 q 587 838 539 856 q 683 782 622 825 l 683 839 l 1036 839 l 1036 607 l 945 607 l 945 242 l 1036 242 l 1036 -4 m 689 416 q 634 556 689 497 q 499 615 578 615 q 362 561 421 615 q 304 430 304 507 q 358 288 304 347 q 492 228 412 228 q 631 282 572 228 q 689 416 689 337 m 868 1041 q 796 1003 828 1015 q 720 984 764 991 q 689 981 704 981 q 601 998 657 981 q 517 1014 545 1014 q 498 1013 508 1014 q 473 1009 488 1013 q 447 1002 458 1005 q 404 984 435 998 l 304 1141 q 362 1169 337 1160 q 425 1185 387 1178 q 458 1188 443 1188 q 556 1169 494 1188 q 656 1151 619 1151 q 730 1164 693 1151 q 773 1181 739 1168 l 868 1041 z "},"å":{"ha":1080,"x_min":42,"x_max":1036,"o":"m 695 1149 q 642 1020 695 1074 q 514 967 589 967 q 384 1021 439 967 q 330 1151 330 1075 q 384 1279 330 1226 q 514 1331 439 1331 q 642 1278 588 1331 q 695 1149 695 1225 m 592 1149 q 569 1205 592 1181 q 514 1228 547 1228 q 458 1206 481 1228 q 434 1151 434 1183 q 457 1094 434 1117 q 514 1070 479 1070 q 569 1093 546 1070 q 592 1149 592 1116 m 1036 -4 l 689 -4 l 689 60 q 589 4 635 22 q 482 -14 542 -14 q 171 108 299 -14 q 42 406 42 229 q 167 722 42 588 q 468 856 291 856 q 587 838 539 856 q 683 782 622 825 l 683 839 l 1036 839 l 1036 607 l 945 607 l 945 242 l 1036 242 l 1036 -4 m 689 416 q 634 556 689 497 q 499 615 578 615 q 362 561 421 615 q 304 430 304 507 q 358 288 304 347 q 492 228 412 228 q 631 282 572 228 q 689 416 689 337 z "},"ç":{"ha":958,"x_min":47,"x_max":916,"o":"m 916 302 q 874 173 916 256 q 791 59 832 89 q 689 0 737 19 q 578 -20 640 -20 l 560 -67 q 689 -121 642 -67 q 735 -248 735 -172 q 677 -387 735 -328 q 537 -446 619 -446 q 394 -393 452 -446 q 334 -250 334 -337 l 477 -250 q 495 -284 482 -270 q 532 -299 509 -299 q 567 -284 551 -299 q 582 -250 582 -270 q 566 -211 582 -227 q 528 -194 551 -194 q 504 -201 514 -194 q 486 -219 494 -208 l 360 -171 l 419 -22 q 150 133 253 5 q 47 433 47 260 q 167 731 47 605 q 450 856 286 856 q 578 837 520 856 q 671 787 631 819 l 671 843 l 890 843 l 890 534 l 648 534 q 486 615 595 615 q 352 555 406 615 q 299 413 299 495 q 354 281 299 337 q 486 225 409 225 q 577 243 539 225 q 644 302 615 262 l 916 302 z "},"é":{"ha":976,"x_min":42,"x_max":933,"o":"m 925 312 l 297 312 q 372 220 323 252 q 488 189 421 189 q 579 212 537 189 q 633 245 582 214 l 894 245 q 734 43 839 114 q 486 -27 628 -27 q 173 101 304 -27 q 42 410 42 229 q 175 727 42 595 q 492 859 307 859 q 803 722 672 859 q 933 399 933 584 q 925 312 933 356 m 677 507 q 596 598 648 568 q 475 628 544 628 q 369 596 414 628 q 297 507 324 564 l 677 507 m 732 1109 l 339 985 l 275 1166 l 654 1324 l 732 1109 z "},"è":{"ha":977,"x_min":42,"x_max":933,"o":"m 925 312 l 297 312 q 372 220 323 252 q 488 189 421 189 q 579 212 537 189 q 633 245 582 214 l 894 245 q 734 43 839 114 q 486 -27 628 -27 q 173 101 304 -27 q 42 410 42 229 q 175 727 42 595 q 492 859 307 859 q 803 722 672 859 q 933 399 933 584 q 925 312 933 356 m 677 507 q 596 598 648 568 q 475 628 544 628 q 369 596 414 628 q 297 507 324 564 l 677 507 m 719 1166 l 656 985 l 264 1109 l 340 1324 l 719 1166 z "},"ê":{"ha":977,"x_min":42,"x_max":933,"o":"m 925 306 l 297 306 q 372 214 323 245 q 488 182 421 182 q 579 206 537 182 q 633 239 582 208 l 894 239 q 734 37 839 107 q 486 -33 628 -33 q 173 95 304 -33 q 42 403 42 223 q 175 721 42 588 q 492 853 307 853 q 803 715 672 853 q 933 393 933 578 q 925 306 933 349 m 677 501 q 596 592 648 561 q 475 622 544 622 q 369 590 414 622 q 297 501 324 558 l 677 501 m 745 984 l 553 984 l 483 1124 l 419 984 l 214 984 l 378 1276 l 597 1276 l 745 984 z "},"ë":{"ha":977,"x_min":42,"x_max":933,"o":"m 925 312 l 297 312 q 372 220 323 252 q 488 189 421 189 q 579 212 537 189 q 633 245 582 214 l 894 245 q 734 43 839 114 q 486 -27 628 -27 q 173 101 304 -27 q 42 410 42 229 q 175 727 42 595 q 492 859 307 859 q 803 722 672 859 q 933 399 933 584 q 925 312 933 356 m 677 507 q 596 598 648 568 q 475 628 544 628 q 369 596 414 628 q 297 507 324 564 l 677 507 m 817 979 l 555 979 l 555 1235 l 817 1235 l 817 979 m 471 979 l 209 979 l 209 1235 l 471 1235 l 471 979 z "},"í":{"ha":536,"x_min":39,"x_max":495,"o":"m 492 0 l 55 0 l 55 236 l 149 236 l 149 605 l 55 605 l 55 839 l 398 839 l 398 242 l 492 242 l 492 0 m 495 1108 l 103 984 l 39 1165 l 418 1323 l 495 1108 z "},"ì":{"ha":530,"x_min":24,"x_max":480,"o":"m 478 0 l 42 0 l 42 236 l 135 236 l 135 605 l 42 605 l 42 839 l 384 839 l 384 242 l 478 242 l 478 0 m 480 1165 l 417 984 l 24 1108 l 101 1323 l 480 1165 z "},"î":{"ha":529,"x_min":-28,"x_max":503,"o":"m 482 0 l 46 0 l 46 236 l 140 236 l 140 605 l 46 605 l 46 839 l 388 839 l 388 242 l 482 242 l 482 0 m 503 983 l 311 983 l 241 1124 l 177 983 l -28 983 l 136 1275 l 355 1275 l 503 983 z "},"ï":{"ha":532,"x_min":-64,"x_max":543,"o":"m 487 0 l 51 0 l 51 236 l 144 236 l 144 605 l 51 605 l 51 839 l 393 839 l 393 242 l 487 242 l 487 0 m 543 979 l 282 979 l 282 1235 l 543 1235 l 543 979 m 198 979 l -64 979 l -64 1235 l 198 1235 l 198 979 z "},"ñ":{"ha":1062,"x_min":47,"x_max":1017,"o":"m 1017 0 l 665 0 l 665 484 q 644 578 665 545 q 553 622 617 622 q 533 621 541 622 q 439 571 476 615 q 402 467 402 527 l 402 242 l 484 242 l 484 0 l 47 0 l 47 242 l 148 242 l 148 607 l 47 607 l 47 839 l 400 839 l 400 755 q 495 833 439 810 q 628 856 551 856 q 867 748 791 856 q 930 514 930 660 l 930 242 l 1017 242 l 1017 0 m 781 1040 q 708 1002 740 1014 q 633 983 677 990 q 602 980 616 980 q 514 997 569 980 q 430 1013 458 1013 q 411 1013 421 1013 q 386 1008 401 1012 q 359 1001 371 1004 q 317 983 347 997 l 217 1140 q 274 1168 249 1159 q 338 1184 300 1177 q 371 1187 356 1187 q 469 1168 406 1187 q 569 1150 532 1150 q 643 1163 606 1150 q 686 1180 652 1167 l 781 1040 z "},"ó":{"ha":967,"x_min":42,"x_max":929,"o":"m 929 406 q 795 99 929 226 q 478 -27 662 -27 q 170 103 298 -27 q 42 416 42 234 q 175 725 42 597 q 492 853 308 853 q 800 721 671 853 q 929 406 929 588 m 673 423 q 617 554 673 500 q 482 607 560 607 q 350 546 403 607 q 297 403 297 486 q 353 275 297 328 q 486 222 409 222 q 619 280 565 222 q 673 423 673 338 m 699 1108 l 306 984 l 242 1165 l 621 1323 l 699 1108 z "},"ò":{"ha":967,"x_min":42,"x_max":929,"o":"m 929 406 q 795 99 929 226 q 478 -27 662 -27 q 170 103 298 -27 q 42 416 42 234 q 175 725 42 597 q 492 853 308 853 q 800 721 671 853 q 929 406 929 588 m 673 423 q 617 554 673 500 q 482 607 560 607 q 350 546 403 607 q 297 403 297 486 q 353 275 297 328 q 486 222 409 222 q 619 280 565 222 q 673 423 673 338 m 699 1165 l 635 984 l 243 1108 l 319 1323 l 699 1165 z "},"ô":{"ha":972,"x_min":42,"x_max":929,"o":"m 757 984 l 566 984 l 495 1124 l 431 984 l 227 984 l 391 1276 l 609 1276 l 757 984 m 929 406 q 795 99 929 226 q 478 -27 662 -27 q 170 103 298 -27 q 42 416 42 234 q 175 725 42 597 q 492 853 308 853 q 800 721 671 853 q 929 406 929 588 m 673 423 q 617 554 673 500 q 482 607 560 607 q 350 546 403 607 q 297 403 297 486 q 353 275 297 328 q 486 222 409 222 q 619 280 565 222 q 673 423 673 338 z "},"ö":{"ha":976,"x_min":42,"x_max":929,"o":"m 929 406 q 795 99 929 226 q 478 -27 662 -27 q 170 103 298 -27 q 42 416 42 234 q 175 725 42 597 q 492 853 308 853 q 800 721 671 853 q 929 406 929 588 m 673 423 q 617 554 673 500 q 482 607 560 607 q 350 546 403 607 q 297 403 297 486 q 353 275 297 328 q 486 222 409 222 q 619 280 565 222 q 673 423 673 338 m 776 979 l 514 979 l 514 1235 l 776 1235 l 776 979 m 430 979 l 169 979 l 169 1235 l 430 1235 l 430 979 z "},"õ":{"ha":976,"x_min":42,"x_max":929,"o":"m 929 406 q 795 99 929 226 q 478 -27 662 -27 q 170 103 298 -27 q 42 416 42 234 q 175 725 42 597 q 492 853 308 853 q 800 721 671 853 q 929 406 929 588 m 673 423 q 617 554 673 500 q 482 607 560 607 q 350 546 403 607 q 297 403 297 486 q 353 275 297 328 q 486 222 409 222 q 619 280 565 222 q 673 423 673 338 m 763 1041 q 690 1003 722 1015 q 615 984 659 991 q 584 981 598 981 q 495 998 551 981 q 412 1014 439 1014 q 393 1013 402 1014 q 368 1009 383 1013 q 341 1002 353 1005 q 299 984 329 998 l 199 1141 q 256 1169 231 1160 q 319 1185 282 1178 q 353 1188 338 1188 q 451 1169 388 1188 q 551 1151 514 1151 q 625 1164 588 1151 q 668 1181 634 1168 l 763 1041 z "},"ú":{"ha":1017,"x_min":42,"x_max":976,"o":"m 976 0 l 653 0 l 653 81 q 435 -14 577 -14 q 210 77 301 -14 q 119 309 119 167 l 119 607 l 42 607 l 42 839 l 378 839 l 378 349 q 408 257 378 291 q 505 218 441 218 q 604 260 570 218 q 633 356 633 296 l 633 607 l 539 607 l 539 839 l 888 839 l 888 242 l 976 242 l 976 0 m 750 1107 l 357 983 l 293 1164 l 672 1322 l 750 1107 z "},"ù":{"ha":1012,"x_min":42,"x_max":976,"o":"m 976 0 l 653 0 l 653 81 q 435 -14 577 -14 q 210 77 301 -14 q 119 309 119 167 l 119 607 l 42 607 l 42 839 l 378 839 l 378 349 q 408 257 378 291 q 505 218 441 218 q 604 260 570 218 q 633 356 633 296 l 633 607 l 539 607 l 539 839 l 888 839 l 888 242 l 976 242 l 976 0 m 736 1164 l 672 983 l 280 1107 l 356 1322 l 736 1164 z "},"û":{"ha":1012,"x_min":42,"x_max":976,"o":"m 976 0 l 653 0 l 653 81 q 435 -14 577 -14 q 210 77 301 -14 q 119 309 119 167 l 119 607 l 42 607 l 42 839 l 378 839 l 378 349 q 408 257 378 291 q 505 218 441 218 q 604 260 570 218 q 633 356 633 296 l 633 607 l 539 607 l 539 839 l 888 839 l 888 242 l 976 242 l 976 0 m 792 983 l 601 983 l 531 1124 l 467 983 l 262 983 l 426 1275 l 644 1275 l 792 983 z "},"ü":{"ha":1016,"x_min":42,"x_max":976,"o":"m 976 0 l 653 0 l 653 81 q 435 -14 577 -14 q 210 77 301 -14 q 119 309 119 167 l 119 607 l 42 607 l 42 839 l 378 839 l 378 349 q 408 257 378 291 q 505 218 441 218 q 604 260 570 218 q 633 356 633 296 l 633 607 l 539 607 l 539 839 l 888 839 l 888 242 l 976 242 l 976 0 m 792 979 l 531 979 l 531 1235 l 792 1235 l 792 979 m 447 979 l 185 979 l 185 1235 l 447 1235 l 447 979 z "},"†":{"ha":902,"x_min":43,"x_max":858,"o":"m 858 633 l 551 633 l 551 -233 l 343 -233 l 343 633 l 43 633 l 43 790 l 348 790 l 348 1107 l 550 1107 l 550 786 l 858 786 l 858 633 z "},"°":{"ha":587,"x_min":66,"x_max":522,"o":"m 522 870 q 455 709 522 776 q 294 642 389 642 q 133 709 199 642 q 66 873 66 777 q 134 1032 66 967 q 294 1098 201 1098 q 455 1032 388 1098 q 522 870 522 965 m 417 870 q 381 958 417 921 q 294 995 345 995 q 207 959 244 995 q 171 872 171 923 q 207 784 171 821 q 294 747 243 747 q 381 783 345 747 q 417 870 417 819 z "},"¢":{"ha":869,"x_min":44,"x_max":827,"o":"m 827 432 q 804 348 821 392 q 745 248 781 288 q 651 173 699 198 q 540 148 603 148 l 540 -25 l 358 -25 l 358 145 q 129 292 214 183 q 44 551 44 402 q 129 813 44 702 q 358 960 213 923 l 358 1139 l 540 1139 l 540 958 q 653 931 603 958 q 745 856 699 908 q 803 758 779 819 q 827 673 821 712 l 582 673 q 521 726 554 710 q 439 743 487 743 q 318 687 367 743 q 269 556 269 632 q 318 421 269 478 q 439 363 366 363 q 520 379 486 363 q 582 432 554 396 l 827 432 z "},"£":{"ha":1064,"x_min":38,"x_max":1018,"o":"m 1018 296 q 915 79 1018 157 q 635 0 812 0 l 115 0 l 115 222 l 217 222 q 286 236 261 222 q 325 293 319 253 q 326 310 326 299 q 316 353 326 333 q 286 399 307 373 l 257 434 l 38 434 l 38 640 l 141 640 l 123 673 q 103 726 108 702 q 98 785 98 749 q 214 1020 98 914 q 476 1125 329 1125 q 567 1112 528 1125 q 644 1072 596 1102 l 644 1107 l 894 1107 l 894 773 l 635 773 q 600 860 635 825 q 508 896 564 896 q 423 859 458 896 q 384 770 388 822 q 402 685 384 726 l 424 638 l 703 638 l 703 433 l 568 433 q 597 378 582 405 q 610 322 610 351 q 564 222 610 265 l 645 222 q 712 236 683 222 q 754 278 742 249 q 763 308 759 290 q 768 341 768 326 q 765 368 768 356 q 755 393 763 380 l 991 393 q 1009 350 1001 377 q 1018 296 1018 323 z "},"§":{"ha":801,"x_min":41,"x_max":765,"o":"m 765 338 q 731 215 765 268 q 635 123 700 166 l 588 91 q 658 11 635 54 q 681 -89 681 -32 q 601 -264 681 -195 q 402 -333 522 -333 q 190 -245 273 -333 q 111 -34 111 -160 l 208 -34 q 206 -52 207 -42 q 206 -67 206 -61 q 260 -191 206 -143 q 326 -229 286 -216 q 407 -243 365 -243 q 499 -222 458 -243 q 559 -160 541 -201 q 574 -91 574 -125 q 551 -6 574 -47 q 486 61 527 34 l 160 278 q 41 489 41 357 q 73 610 41 559 q 168 700 106 662 l 207 724 q 148 805 166 762 q 129 907 129 849 q 210 1073 129 1006 q 400 1139 291 1139 q 608 1056 531 1139 q 686 847 686 974 l 597 847 q 598 870 598 855 q 575 965 598 924 q 506 1027 551 1005 q 409 1050 460 1050 q 298 1021 345 1050 q 232 933 245 988 q 229 916 230 926 q 228 899 228 907 q 262 804 228 848 q 345 733 291 765 l 578 589 q 710 486 670 532 q 765 338 765 421 m 674 320 q 653 399 674 365 q 590 461 632 433 l 260 671 l 227 654 q 155 594 179 626 q 128 508 128 557 q 152 421 128 458 q 221 354 175 385 l 535 145 l 574 170 q 646 232 623 200 q 674 320 674 271 z "},"•":{"ha":493,"x_min":47,"x_max":447,"o":"m 447 349 l 47 349 l 47 749 l 447 749 l 447 349 z "},"¶":{"ha":796,"x_min":46,"x_max":754,"o":"m 754 1019 l 618 1019 l 618 -210 l 532 -210 l 532 1019 l 408 1019 l 408 -210 l 322 -210 l 322 556 q 127 639 208 556 q 46 837 46 722 q 125 1038 46 954 q 318 1122 203 1122 l 754 1122 l 754 1019 z "},"ß":{"ha":1043,"x_min":42,"x_max":1002,"o":"m 1002 326 q 897 73 1002 176 q 646 -31 793 -31 q 555 -23 592 -31 q 472 10 519 -14 l 472 248 q 528 222 499 229 q 595 214 558 214 q 688 250 651 214 q 725 343 725 286 q 662 452 725 419 q 523 479 611 479 l 472 479 l 472 701 l 509 701 q 578 730 549 701 q 606 799 606 759 q 580 865 606 839 q 505 890 554 890 q 428 846 452 890 q 407 742 407 809 l 407 0 l 42 0 l 42 242 l 129 242 l 129 738 q 244 1032 129 908 q 525 1155 358 1155 q 782 1054 676 1155 q 884 833 884 958 q 859 705 884 754 q 771 628 831 652 q 939 531 875 614 q 1002 326 1002 448 z "},"®":{"ha":1205,"x_min":39,"x_max":1152,"o":"m 595 0 q 178 174 332 0 q 39 557 39 331 q 177 940 39 784 q 595 1115 331 1115 q 1013 940 857 1115 q 1152 557 1152 783 q 1013 174 1152 330 q 595 0 858 0 m 595 59 q 968 214 830 59 q 1093 557 1093 354 q 968 899 1093 759 q 595 1055 829 1055 q 223 900 361 1055 q 98 557 98 759 q 222 215 98 355 q 595 59 360 59 m 862 215 l 792 215 q 787 215 790 215 q 770 357 773 242 q 713 502 767 473 q 680 514 698 511 q 641 517 662 517 q 613 517 623 517 l 434 517 l 434 215 l 369 215 l 369 884 l 615 884 q 781 853 722 884 q 860 709 860 810 q 832 607 860 648 q 749 543 803 566 q 793 515 786 522 q 814 487 806 504 q 830 443 826 464 q 834 395 834 422 q 833 364 834 385 q 832 331 832 342 q 835 285 832 307 q 847 240 838 264 q 854 225 849 231 q 862 215 858 219 m 796 701 q 742 803 796 772 q 625 828 699 828 l 434 828 l 435 574 l 622 574 q 740 597 698 574 q 796 701 796 629 z "},"©":{"ha":1206,"x_min":39,"x_max":1152,"o":"m 595 0 q 178 174 332 0 q 39 557 39 331 q 177 940 39 784 q 595 1115 331 1115 q 1013 940 857 1115 q 1152 557 1152 783 q 1013 174 1152 330 q 595 0 858 0 m 595 59 q 968 214 830 59 q 1093 557 1093 354 q 968 899 1093 759 q 595 1055 829 1055 q 223 900 361 1055 q 98 557 98 759 q 222 215 98 355 q 595 59 360 59 m 870 443 q 771 271 850 336 q 578 207 692 207 q 363 315 434 207 q 303 552 303 405 q 376 797 303 698 q 598 908 458 908 q 767 860 697 908 q 858 719 843 809 l 863 693 l 796 693 l 791 714 q 722 813 777 778 q 597 847 666 847 q 419 755 478 847 q 368 553 368 678 q 407 363 368 430 q 582 262 457 277 q 601 261 588 261 q 730 314 671 261 q 803 443 788 366 l 870 443 z "},"™":{"ha":1047,"x_min":37,"x_max":1000,"o":"m 439 1068 l 264 1068 l 264 557 l 210 557 l 210 1069 l 37 1069 l 37 1115 l 439 1115 l 439 1068 m 1000 557 l 946 557 l 946 1051 l 761 559 l 713 559 l 535 1053 l 535 557 l 481 557 l 480 1112 l 565 1112 l 739 625 l 921 1111 l 1000 1111 l 1000 557 z "},"´":{"ha":542,"x_min":47,"x_max":504,"o":"m 504 1068 l 111 943 l 47 1124 l 426 1282 l 504 1068 z "},"¨":{"ha":698,"x_min":47,"x_max":654,"o":"m 654 849 l 393 849 l 393 1105 l 654 1105 l 654 849 m 309 849 l 47 849 l 47 1105 l 309 1105 l 309 849 z "},"≠":{"ha":929,"x_min":63,"x_max":867,"o":"m 867 182 l 403 182 l 265 -60 l 190 -14 l 302 182 l 63 181 l 63 271 l 351 271 l 466 480 l 63 480 l 63 569 l 517 569 l 657 819 l 733 773 l 617 569 l 867 569 l 867 480 l 571 480 l 447 271 l 867 271 l 867 182 z "},"Æ":{"ha":1532,"x_min":48,"x_max":1484,"o":"m 1484 749 l 1216 749 l 1216 853 l 1031 853 l 1031 699 l 1282 699 l 1282 437 l 1031 437 l 1031 252 l 1216 252 l 1216 386 l 1481 386 l 1481 0 l 687 0 l 689 212 l 779 212 l 775 302 l 479 302 l 418 215 l 529 215 l 529 0 l 48 0 l 48 238 l 144 238 l 631 873 l 530 873 l 530 1107 l 1484 1107 l 1484 749 m 788 768 l 623 521 l 787 521 l 788 768 z "},"Ø":{"ha":1232,"x_min":46,"x_max":1194,"o":"m 1194 560 q 1025 147 1194 320 q 616 -27 856 -27 q 544 -24 577 -27 q 486 -14 512 -22 l 421 -162 l 227 -162 l 318 52 q 198 133 248 85 q 92 289 130 197 q 46 554 46 402 q 215 957 46 790 q 620 1124 384 1124 q 696 1120 664 1124 q 773 1103 727 1115 l 846 1266 l 1030 1266 l 930 1032 q 1129 832 1063 947 q 1194 560 1194 717 m 659 833 l 624 836 q 418 751 504 836 q 331 547 331 666 q 356 421 331 474 q 437 324 381 369 l 659 833 m 905 547 q 884 663 905 614 q 815 759 864 713 l 603 260 l 613 259 q 629 258 621 258 q 645 257 637 257 q 828 345 751 257 q 905 547 905 433 z "},"∞":{"ha":1221,"x_min":39,"x_max":1177,"o":"m 1177 402 q 1105 221 1177 292 q 942 154 1037 154 q 813 181 880 154 q 682 265 740 211 l 607 335 l 534 265 q 406 183 476 212 q 273 154 335 154 q 112 220 180 154 q 39 402 39 291 q 110 564 39 498 q 278 631 180 631 q 398 603 338 631 q 515 523 458 576 l 607 440 l 700 523 q 818 603 757 575 q 938 631 879 631 q 1106 564 1035 631 q 1177 402 1177 498 m 1095 396 q 1044 502 1089 460 q 931 543 999 543 q 846 524 885 543 q 770 475 819 512 l 659 392 l 761 296 q 838 246 800 261 q 930 232 876 232 q 1049 279 1004 232 q 1095 396 1095 327 m 557 392 l 447 475 q 370 524 397 511 q 284 543 330 543 q 169 501 217 543 q 122 396 122 459 q 167 280 122 328 q 286 232 212 232 q 377 246 338 232 q 455 296 416 261 l 557 392 z "},"±":{"ha":717,"x_min":44,"x_max":672,"o":"m 672 457 l 398 457 l 398 184 l 328 184 l 328 457 l 55 457 l 57 534 l 328 534 l 328 808 l 400 808 l 400 533 l 672 533 l 672 457 m 666 -1 l 44 -1 l 44 56 l 666 56 l 666 -1 z "},"≤":{"ha":858,"x_min":38,"x_max":810,"o":"m 810 201 l 38 562 l 38 645 l 809 995 l 809 892 l 166 604 l 810 302 l 810 201 m 809 2 l 40 2 l 40 89 l 809 89 l 809 2 z "},"≥":{"ha":854,"x_min":44,"x_max":817,"o":"m 817 548 l 44 187 l 44 288 l 689 589 l 46 877 l 46 980 l 817 631 l 817 548 m 815 -11 l 46 -11 l 46 75 l 815 75 l 815 -11 z "},"¥":{"ha":1113,"x_min":42,"x_max":1052,"o":"m 1052 869 l 958 869 l 873 723 l 958 723 l 958 578 l 788 578 l 737 493 l 958 493 l 958 348 l 683 348 l 683 242 l 781 242 l 781 0 l 287 0 l 287 242 l 404 242 l 404 348 l 105 348 l 105 493 l 348 493 l 302 578 l 105 578 l 105 723 l 225 723 l 146 869 l 42 869 l 42 1107 l 499 1107 l 499 876 l 431 876 l 548 634 l 677 876 l 599 876 l 599 1107 l 1052 1107 l 1052 869 z "},"µ":{"ha":920,"x_min":-8,"x_max":877,"o":"m 877 161 l 866 111 q 792 8 855 51 q 684 -31 736 -31 q 671 -30 675 -31 q 573 22 615 -22 q 528 130 528 69 l 486 88 q 379 8 436 40 q 280 -24 322 -24 q 188 -3 237 -24 q 93 69 127 23 l 93 12 q 111 -85 93 -34 q 151 -252 151 -196 q 130 -325 151 -295 q 69 -358 106 -358 q 14 -329 35 -358 q -8 -263 -8 -301 q 4 -171 -8 -210 q 41 -39 40 -49 q 43 -21 42 -29 q 43 0 43 -14 l 43 810 l 180 810 l 180 252 q 222 130 180 182 q 328 78 264 78 q 460 129 393 78 q 532 250 532 184 l 532 810 l 665 810 l 665 179 q 689 87 665 129 q 752 45 713 45 q 764 46 760 45 q 810 70 792 52 q 836 118 827 88 l 848 161 l 877 161 z "},"∂":{"ha":788,"x_min":48,"x_max":737,"o":"m 737 603 q 641 183 737 371 q 365 -28 532 -28 q 349 -28 355 -28 q 339 -27 343 -27 q 124 69 200 -14 q 48 276 48 152 q 135 513 48 413 q 357 616 227 616 q 461 598 416 616 q 554 544 497 584 l 600 510 l 612 589 q 617 635 615 613 q 619 685 619 658 q 554 952 619 843 q 352 1076 481 1076 q 277 1063 315 1076 q 201 1038 238 1050 l 172 1029 l 115 1101 l 180 1121 q 255 1138 226 1133 q 326 1143 284 1143 q 630 972 513 1143 q 737 603 737 815 m 588 454 l 547 494 q 500 529 523 516 q 451 547 476 542 q 407 552 427 552 q 272 486 332 552 q 192 337 217 426 q 179 236 179 288 q 210 100 179 156 q 314 16 245 37 q 355 10 334 10 q 496 119 438 10 q 566 334 541 203 l 588 454 z "},"Σ":{"ha":1159,"x_min":49,"x_max":1112,"o":"m 1112 162 q 1087 77 1096 116 q 1066 -25 1077 38 q 1054 -97 1055 -88 q 1050 -180 1050 -133 l 939 -159 l 49 -159 l 600 447 l 58 1124 l 159 1113 l 1002 1113 l 1004 865 l 972 865 q 959 941 972 911 q 914 1000 946 972 q 849 1036 883 1028 q 762 1043 816 1043 l 307 1043 l 744 515 l 275 -10 l 901 -10 q 955 -2 933 -10 q 1004 26 976 5 q 1060 87 1041 54 q 1078 162 1078 119 l 1112 162 z "},"∏":{"ha":1310,"x_min":39,"x_max":1265,"o":"m 1265 -163 l 780 -163 l 780 -134 l 819 -133 q 872 -128 853 -133 q 907 -107 891 -124 q 927 -74 922 -91 q 931 -31 931 -58 q 931 -1 931 -12 l 931 1022 l 363 1022 l 363 7 q 370 -63 363 -37 q 402 -110 376 -89 q 441 -127 421 -124 q 494 -131 461 -131 l 523 -131 l 523 -163 l 39 -163 l 39 -129 l 77 -129 q 132 -125 116 -129 q 162 -108 147 -120 q 194 -56 187 -88 q 198 8 198 -39 l 198 932 q 186 994 198 967 q 147 1043 174 1021 q 112 1069 127 1060 q 73 1078 97 1077 l 46 1080 l 46 1112 l 1265 1112 l 1265 1078 l 1231 1077 q 1192 1069 1208 1077 q 1158 1045 1181 1063 q 1119 989 1129 1022 q 1108 910 1108 957 l 1108 -3 q 1114 -65 1108 -42 q 1142 -108 1119 -88 q 1180 -130 1159 -125 q 1229 -136 1200 -136 l 1265 -138 l 1265 -163 z "},"π":{"ha":948,"x_min":54,"x_max":914,"o":"m 914 262 l 911 225 q 844 68 899 130 q 697 0 783 0 q 583 79 620 0 q 552 247 552 143 q 552 279 552 265 q 556 319 552 292 l 595 677 l 400 677 l 333 150 q 299 43 326 88 q 222 -9 267 -9 q 201 -6 212 -9 q 156 14 174 0 q 133 51 138 27 q 130 65 131 58 q 129 76 129 71 q 154 136 129 106 q 231 229 228 222 q 249 270 245 257 q 260 311 257 291 l 299 671 l 245 671 q 206 670 225 671 q 167 662 187 670 q 111 617 138 650 q 83 573 89 591 l 54 584 l 66 607 q 115 712 104 694 q 195 787 145 763 q 247 808 224 802 q 303 813 270 813 l 904 813 l 904 677 l 686 677 l 664 280 q 694 181 664 224 q 773 139 723 139 q 839 165 812 139 q 875 234 866 191 l 883 262 l 914 262 z "},"∫":{"ha":490,"x_min":38,"x_max":438,"o":"m 434 1210 q 411 1169 430 1185 q 365 1152 392 1152 q 336 1164 350 1152 q 306 1185 313 1182 q 295 1188 300 1188 q 276 1168 282 1188 q 271 1111 271 1148 q 277 1000 271 1071 q 291 800 291 836 l 291 313 q 283 125 291 207 q 240 -75 271 -4 q 131 -168 200 -168 q 93 -162 112 -168 q 56 -137 74 -157 q 38 -95 38 -117 q 55 -51 38 -68 q 97 -33 72 -33 q 132 -51 117 -33 q 162 -77 150 -73 q 199 -44 188 -85 q 207 60 207 -14 q 206 130 207 103 q 202 243 202 239 l 202 918 q 245 1207 202 1117 q 346 1282 281 1282 q 409 1262 381 1282 q 434 1210 438 1241 z "},"ª":{"ha":581,"x_min":42,"x_max":539,"o":"m 535 510 l 53 510 l 53 600 l 535 600 l 535 510 m 539 666 l 365 666 l 365 699 q 315 670 338 679 q 262 661 291 661 q 106 722 171 661 q 42 871 42 782 q 103 1029 42 962 q 254 1096 165 1096 q 314 1087 291 1096 q 362 1059 330 1081 l 362 1087 l 539 1087 l 539 972 l 493 972 l 493 789 l 539 789 l 539 666 m 365 876 q 338 946 365 916 q 270 976 310 976 q 201 948 230 976 q 172 883 172 921 q 199 812 172 842 q 266 782 227 782 q 336 809 307 782 q 365 876 365 836 z "},"º":{"ha":575,"x_min":53,"x_max":535,"o":"m 535 510 l 53 510 l 53 600 l 535 600 l 535 510 m 508 883 q 441 729 508 792 q 282 666 375 666 q 129 731 192 666 q 65 887 65 797 q 131 1042 65 978 q 290 1106 198 1106 q 444 1040 380 1106 q 508 883 508 974 m 380 891 q 352 956 380 929 q 284 983 324 983 q 219 953 245 983 q 192 881 192 922 q 220 817 192 843 q 286 791 248 791 q 353 819 326 791 q 380 891 380 848 z "},"Ω":{"ha":1156,"x_min":37,"x_max":1105,"o":"m 1105 -2 l 658 -2 l 680 217 q 839 360 786 266 q 890 574 890 449 q 832 807 890 729 q 574 907 757 907 q 321 808 404 907 q 250 574 250 722 q 302 358 250 449 q 462 217 354 266 l 484 -2 l 37 -2 l 37 229 l 66 229 q 69 200 66 211 q 81 176 71 190 q 160 138 106 138 l 403 138 l 403 184 q 168 318 258 209 q 79 577 79 427 q 218 854 79 753 q 572 951 353 951 q 932 853 800 951 q 1064 577 1064 754 q 974 319 1064 428 q 737 184 884 209 l 737 138 l 982 138 q 1061 176 1035 138 q 1072 200 1069 189 q 1075 229 1075 212 l 1105 229 l 1105 -2 z "},"æ":{"ha":1742,"x_min":47,"x_max":1706,"o":"m 1698 312 l 1071 312 q 1147 220 1097 252 q 1263 189 1196 189 q 1354 212 1310 189 q 1407 245 1388 234 l 1669 245 q 1505 51 1596 114 q 1259 -21 1403 -21 q 1080 -5 1149 -21 q 922 67 998 15 l 922 -4 l 695 -4 l 695 60 q 593 4 640 22 q 486 -14 547 -14 q 176 108 304 -14 q 47 406 47 229 q 171 723 47 589 q 474 856 295 856 q 592 838 544 856 q 689 782 628 825 l 689 839 l 947 839 l 947 782 q 1088 843 1024 828 q 1266 859 1152 859 q 1566 718 1429 859 q 1706 390 1706 574 q 1698 312 1706 354 m 1450 507 q 1371 598 1422 568 q 1249 628 1319 628 q 1143 596 1189 628 q 1071 507 1098 564 l 1450 507 m 695 416 q 639 556 695 497 q 504 615 584 615 q 367 561 425 615 q 309 430 309 507 q 363 288 309 348 q 497 228 418 228 q 636 282 578 228 q 695 416 695 337 z "},"ø":{"ha":969,"x_min":42,"x_max":929,"o":"m 929 406 q 796 100 929 227 q 479 -27 662 -27 q 437 -25 456 -27 q 392 -16 419 -23 l 345 -128 l 150 -128 l 228 55 q 88 210 133 122 q 42 416 42 298 q 176 725 42 597 q 493 853 309 853 q 535 850 518 853 q 572 844 552 847 l 626 967 l 811 967 l 738 783 q 874 635 820 742 q 929 406 929 528 m 471 607 q 347 541 395 600 q 298 403 298 483 q 336 298 298 349 l 471 607 m 673 423 q 655 503 673 467 q 628 540 643 525 l 494 223 q 619 282 565 223 q 673 423 673 340 z "},"¿":{"ha":865,"x_min":51,"x_max":826,"o":"m 568 564 l 302 564 l 302 828 l 568 828 l 568 564 m 826 93 q 711 -190 826 -70 q 433 -310 596 -310 q 165 -201 279 -310 q 51 57 51 -92 q 72 189 51 133 q 144 291 94 245 l 217 357 q 248 387 236 374 q 272 416 260 400 q 292 452 284 431 q 304 493 301 472 l 569 493 l 569 459 q 560 400 569 429 q 536 347 551 371 q 501 298 521 322 q 463 258 481 273 l 363 170 q 329 128 342 152 q 317 74 317 105 q 350 -7 317 27 q 429 -41 383 -41 q 513 -7 479 -41 q 546 74 546 26 l 547 93 l 826 93 z "},"¡":{"ha":344,"x_min":47,"x_max":302,"o":"m 302 581 l 47 581 l 47 833 l 302 833 l 302 581 m 302 -275 l 47 -275 l 47 470 l 302 470 l 302 -275 z "},"¬":{"ha":1210,"x_min":42,"x_max":1158,"o":"m 1158 0 l 1066 0 l 1066 389 l 42 389 l 42 475 l 1158 475 l 1158 0 z "},"√":{"ha":805,"x_min":42,"x_max":763,"o":"m 763 1244 l 549 -72 l 199 622 l 64 553 l 42 600 l 247 698 l 531 142 l 714 1252 l 763 1244 z "},"ƒ":{"ha":594,"x_min":-136,"x_max":551,"o":"m 549 1189 q 467 1132 529 1132 q 441 1143 454 1132 q 418 1164 421 1161 q 403 1168 411 1168 q 356 1049 372 1168 q 328 841 332 861 l 319 809 l 474 809 l 465 745 l 302 745 l 209 281 q 162 95 188 176 q 76 -105 122 -34 q -57 -198 14 -198 q -92 -192 -74 -198 q -123 -170 -110 -187 q -136 -134 -136 -153 q -134 -120 -136 -127 q -106 -79 -125 -94 q -61 -63 -88 -63 q -30 -83 -42 -63 q -8 -106 -18 -104 q 43 -62 21 -116 q 78 66 60 -24 q 105 209 91 137 l 212 747 l 43 747 l 46 810 l 236 810 l 245 852 q 293 1037 267 959 q 370 1195 328 1140 q 478 1261 420 1261 q 527 1243 504 1261 q 551 1202 551 1226 q 549 1189 551 1194 z "},"≈":{"ha":1005,"x_min":42,"x_max":963,"o":"m 963 597 l 930 558 q 835 483 885 507 q 721 459 785 459 q 637 473 680 459 q 551 500 593 486 l 412 538 q 354 553 371 549 q 301 561 322 561 q 284 561 292 561 q 265 558 281 561 q 143 487 195 543 l 116 458 l 42 504 l 67 530 q 154 600 110 576 q 262 635 199 625 q 312 640 291 640 q 377 633 344 640 q 446 613 398 628 l 569 576 q 635 554 615 560 q 700 542 671 542 q 717 543 711 542 q 799 558 764 543 q 865 606 833 572 l 896 638 l 963 597 m 963 328 l 930 289 q 836 213 885 237 q 721 190 787 190 q 637 203 680 190 q 551 230 593 217 l 412 268 q 354 284 383 276 q 301 292 326 292 q 284 292 292 292 q 265 289 281 292 q 199 265 227 281 q 143 218 171 249 l 116 188 l 42 235 l 67 260 q 155 332 110 307 q 262 365 199 356 q 300 370 291 370 q 314 370 309 370 q 372 364 345 370 q 446 344 400 357 l 569 308 q 625 289 608 294 q 717 273 673 273 q 799 290 769 278 q 865 337 835 304 l 896 369 l 963 328 z "},"∆":{"ha":1100,"x_min":49,"x_max":1062,"o":"m 1062 0 l 49 0 l 589 1136 l 1062 0 m 863 73 l 527 866 l 154 73 l 863 73 z "},"«":{"ha":826,"x_min":45,"x_max":779,"o":"m 779 602 l 548 437 l 774 277 l 774 109 l 454 359 l 454 520 l 779 760 l 779 602 m 371 602 l 140 437 l 366 277 l 366 109 l 45 359 l 45 520 l 371 760 l 371 602 z "},"»":{"ha":830,"x_min":43,"x_max":777,"o":"m 777 359 l 457 109 l 457 277 l 682 437 l 452 602 l 452 760 l 777 520 l 777 359 m 369 359 l 48 109 l 48 277 l 274 437 l 43 602 l 43 760 l 369 520 l 369 359 z "},"…":{"ha":1611,"x_min":41,"x_max":1573,"o":"m 300 -6 l 41 -6 l 41 259 l 300 259 l 300 -6 m 947 -13 l 688 -13 l 688 253 l 947 253 l 947 -13 m 1573 -13 l 1314 -13 l 1314 253 l 1573 253 l 1573 -13 z "}," ":{"ha":720,"x_min":0,"x_max":0,"o":""},"À":{"ha":1236,"x_min":47,"x_max":1198,"o":"m 1198 0 l 699 0 l 699 212 l 789 212 l 752 302 l 457 302 l 426 215 l 537 215 l 537 0 l 47 0 l 47 242 l 144 242 l 400 869 l 299 869 l 299 1107 l 728 1107 l 1084 242 l 1198 242 l 1198 0 m 685 521 l 605 773 l 521 521 l 685 521 m 769 1386 l 706 1205 l 313 1329 l 390 1544 l 769 1386 z "},"Ã":{"ha":1233,"x_min":29,"x_max":1180,"o":"m 1180 0 l 680 0 l 680 212 l 771 212 l 734 302 l 439 302 l 408 215 l 519 215 l 519 0 l 29 0 l 29 242 l 126 242 l 382 869 l 281 869 l 281 1107 l 710 1107 l 1066 242 l 1180 242 l 1180 0 m 667 521 l 587 773 l 503 521 l 667 521 m 805 1265 q 733 1228 764 1240 q 657 1208 701 1216 q 626 1206 641 1206 q 538 1222 594 1206 q 454 1239 482 1239 q 435 1238 445 1239 q 410 1234 425 1237 q 384 1226 395 1230 q 341 1208 372 1223 l 241 1365 q 299 1393 273 1384 q 362 1410 324 1402 q 395 1412 380 1412 q 493 1394 430 1412 q 593 1375 556 1375 q 667 1389 630 1375 q 710 1406 676 1392 l 805 1265 z "},"Õ":{"ha":1242,"x_min":46,"x_max":1194,"o":"m 1194 560 q 1025 147 1194 320 q 616 -27 856 -27 q 213 134 375 -27 q 46 554 46 299 q 215 957 46 790 q 620 1124 384 1124 q 1024 959 855 1124 q 1194 560 1194 794 m 905 547 q 823 750 905 664 q 624 836 741 836 q 418 751 504 836 q 331 547 331 666 q 414 344 331 430 q 613 259 496 259 q 819 343 733 259 q 905 547 905 428 m 865 1263 q 792 1225 824 1237 q 717 1206 761 1213 q 686 1203 700 1203 q 597 1220 653 1203 q 514 1236 541 1236 q 495 1235 504 1236 q 470 1231 485 1235 q 443 1224 455 1227 q 401 1206 431 1220 l 301 1363 q 358 1391 333 1382 q 421 1407 384 1400 q 455 1410 439 1410 q 553 1391 490 1410 q 652 1373 615 1373 q 726 1386 689 1373 q 770 1403 736 1390 l 865 1263 z "},"Œ":{"ha":1636,"x_min":42,"x_max":1592,"o":"m 1592 749 l 1324 749 l 1324 853 l 1139 853 l 1139 699 l 1391 699 l 1391 437 l 1139 437 l 1139 252 l 1324 252 l 1324 386 l 1588 386 l 1588 0 l 795 0 q 707 -20 750 -13 q 612 -27 663 -27 q 208 134 371 -27 q 42 554 42 299 q 211 957 42 789 q 615 1124 381 1124 q 698 1121 662 1124 q 795 1107 735 1117 l 1592 1107 l 1592 749 m 901 547 q 819 750 901 664 q 619 836 736 836 q 413 751 500 836 q 327 547 327 666 q 409 344 327 430 q 608 259 492 259 q 814 343 728 259 q 901 547 901 428 z "},"œ":{"ha":1559,"x_min":42,"x_max":1522,"o":"m 1515 312 l 888 312 q 963 220 914 252 q 1079 189 1013 189 q 1170 212 1127 189 q 1224 245 1205 234 l 1485 245 q 1322 51 1413 114 q 1076 -21 1220 -21 q 897 -5 966 -21 q 739 67 815 15 q 614 5 680 24 q 482 -14 549 -14 q 171 108 299 -14 q 42 406 42 229 q 167 722 42 588 q 468 856 291 856 q 616 844 558 856 q 763 782 694 827 q 905 843 841 828 q 1083 859 969 859 q 1383 718 1246 859 q 1522 390 1522 574 q 1515 312 1522 354 m 1267 507 q 1187 598 1239 568 q 1066 628 1135 628 q 959 597 1004 628 q 888 507 914 565 l 1267 507 m 689 416 q 634 556 689 497 q 499 615 578 615 q 362 561 421 615 q 304 430 304 507 q 358 288 304 347 q 492 228 412 228 q 631 282 572 228 q 689 416 689 337 z "},"–":{"ha":678,"x_min":45,"x_max":623,"o":"m 623 414 l 45 414 l 45 578 l 623 578 l 623 414 z "},"—":{"ha":1213,"x_min":45,"x_max":1159,"o":"m 1159 413 l 45 411 l 45 578 l 1159 578 l 1159 413 z "},"“":{"ha":791,"x_min":41,"x_max":657,"o":"m 657 590 l 393 590 l 393 893 q 403 980 393 943 q 438 1048 412 1016 q 516 1094 464 1079 q 608 1105 555 1105 l 643 1105 l 643 972 l 618 972 q 554 942 578 972 q 543 919 546 931 q 540 890 540 907 q 540 870 540 877 l 540 852 l 657 852 l 657 590 m 304 590 l 41 590 l 41 893 q 50 979 41 944 q 86 1047 60 1014 q 163 1094 112 1079 q 255 1105 202 1105 l 291 1105 l 291 972 l 266 972 q 202 942 226 972 q 189 916 191 930 q 187 880 187 903 q 187 870 187 874 l 187 852 l 304 852 l 304 590 z "},"”":{"ha":705,"x_min":45,"x_max":661,"o":"m 661 804 q 651 718 661 754 q 617 652 642 681 q 538 604 590 618 q 446 593 499 593 l 411 593 l 411 726 l 436 726 q 500 755 476 726 q 511 778 508 766 q 514 808 514 791 q 514 828 514 820 l 514 846 l 397 846 l 397 1107 l 661 1107 l 661 804 m 309 804 q 299 718 309 754 q 264 651 290 683 q 186 604 237 618 q 94 593 147 593 l 59 593 l 59 726 l 83 726 q 147 755 124 726 q 161 791 160 772 q 162 828 162 810 l 162 846 l 45 846 l 45 1107 l 309 1107 l 309 804 z "},"‘":{"ha":349,"x_min":41,"x_max":304,"o":"m 304 590 l 41 590 l 41 893 q 50 980 41 943 q 85 1048 60 1016 q 163 1094 111 1079 q 255 1105 202 1105 l 291 1105 l 291 972 l 265 972 q 201 942 225 972 q 190 919 193 931 q 187 890 187 907 q 187 870 187 877 l 187 852 l 304 852 l 304 590 z "},"’":{"ha":349,"x_min":44,"x_max":308,"o":"m 308 804 q 298 718 308 754 q 264 652 289 681 q 185 604 237 618 q 93 593 146 593 l 58 593 l 58 726 l 83 726 q 147 755 124 726 q 158 778 155 766 q 162 808 162 791 q 162 828 162 820 l 162 846 l 44 846 l 44 1107 l 308 1107 l 308 804 z "},"÷":{"ha":1037,"x_min":41,"x_max":984,"o":"m 606 704 q 575 631 606 662 q 503 601 545 601 q 433 632 462 601 q 403 706 403 663 q 433 776 403 746 q 504 806 463 806 q 576 776 546 806 q 606 704 606 746 m 984 407 l 41 407 l 41 510 l 984 510 l 984 407 m 604 211 q 574 139 604 169 q 502 109 544 109 q 432 140 461 109 q 402 213 402 171 q 432 283 402 254 q 504 313 462 313 q 574 283 544 313 q 604 211 604 254 z "},"◊":{"ha":763,"x_min":48,"x_max":726,"o":"m 726 560 l 438 -1 l 342 -1 l 48 568 l 342 1109 l 438 1109 l 726 560 m 639 560 l 389 1027 l 137 565 l 392 68 l 639 560 z "},"ÿ":{"ha":995,"x_min":66,"x_max":969,"o":"m 969 607 l 892 607 l 616 -57 l 697 -57 l 697 -292 l 281 -292 l 281 -60 l 355 -60 l 388 27 l 157 607 l 66 607 l 66 839 l 479 839 l 479 597 l 432 597 l 519 343 l 613 597 l 569 597 l 569 839 l 969 839 l 969 607 m 819 979 l 558 979 l 558 1235 l 819 1235 l 819 979 m 474 979 l 212 979 l 212 1235 l 474 1235 l 474 979 z "},"Ÿ":{"ha":1105,"x_min":42,"x_max":1052,"o":"m 1052 869 l 958 869 l 683 400 l 683 242 l 781 242 l 781 0 l 287 0 l 287 242 l 404 242 l 404 390 l 146 869 l 42 869 l 42 1107 l 499 1107 l 499 876 l 431 876 l 549 631 l 677 876 l 599 876 l 599 1107 l 1052 1107 l 1052 869 m 849 1198 l 588 1198 l 588 1454 l 849 1454 l 849 1198 m 504 1198 l 242 1198 l 242 1454 l 504 1454 l 504 1198 z "},"·":{"ha":344,"x_min":47,"x_max":306,"o":"m 306 442 l 47 442 l 47 708 l 306 708 l 306 442 z "},"‚":{"ha":349,"x_min":44,"x_max":308,"o":"m 308 -49 q 298 -135 308 -98 q 264 -201 289 -171 q 185 -249 237 -235 q 93 -260 146 -260 l 58 -260 l 58 -127 l 83 -127 q 147 -97 124 -127 q 158 -74 155 -87 q 162 -45 162 -62 q 162 -25 162 -32 l 162 -7 l 44 -7 l 44 254 l 308 254 l 308 -49 z "},"„":{"ha":705,"x_min":45,"x_max":661,"o":"m 661 -49 q 651 -135 661 -98 q 617 -201 642 -171 q 538 -249 590 -235 q 446 -260 499 -260 l 411 -260 l 411 -127 l 436 -127 q 500 -97 476 -127 q 511 -74 508 -87 q 514 -45 514 -62 q 514 -25 514 -32 l 514 -7 l 397 -7 l 397 254 l 661 254 l 661 -49 m 309 -49 q 299 -134 309 -99 q 264 -202 290 -170 q 186 -249 237 -235 q 94 -260 147 -260 l 59 -260 l 59 -127 l 83 -127 q 147 -97 124 -127 q 161 -62 160 -81 q 162 -25 162 -43 l 162 -7 l 45 -7 l 45 254 l 309 254 l 309 -49 z "},"Â":{"ha":1251,"x_min":47,"x_max":1198,"o":"m 1198 0 l 699 0 l 699 212 l 789 212 l 752 302 l 457 302 l 426 215 l 537 215 l 537 0 l 47 0 l 47 242 l 144 242 l 400 869 l 299 869 l 299 1107 l 728 1107 l 1084 242 l 1198 242 l 1198 0 m 685 521 l 605 773 l 521 521 l 685 521 m 821 1203 l 630 1203 l 560 1344 l 495 1203 l 291 1203 l 455 1495 l 673 1495 l 821 1203 z "},"Ê":{"ha":934,"x_min":42,"x_max":895,"o":"m 895 749 l 626 749 l 626 853 l 442 853 l 442 699 l 694 699 l 694 437 l 442 437 l 442 252 l 626 252 l 626 386 l 892 386 l 892 0 l 42 0 l 42 242 l 147 242 l 147 869 l 42 869 l 42 1107 l 895 1107 l 895 749 m 740 1203 l 549 1203 l 478 1344 l 414 1203 l 209 1203 l 374 1495 l 592 1495 l 740 1203 z "},"Á":{"ha":1251,"x_min":47,"x_max":1198,"o":"m 1198 0 l 699 0 l 699 212 l 789 212 l 752 302 l 457 302 l 426 215 l 537 215 l 537 0 l 47 0 l 47 242 l 144 242 l 400 869 l 299 869 l 299 1107 l 728 1107 l 1084 242 l 1198 242 l 1198 0 m 685 521 l 605 773 l 521 521 l 685 521 m 788 1328 l 395 1203 l 331 1384 l 710 1542 l 788 1328 z "},"Ë":{"ha":934,"x_min":42,"x_max":895,"o":"m 895 749 l 626 749 l 626 853 l 442 853 l 442 699 l 694 699 l 694 437 l 442 437 l 442 252 l 626 252 l 626 386 l 892 386 l 892 0 l 42 0 l 42 242 l 147 242 l 147 869 l 42 869 l 42 1107 l 895 1107 l 895 749 m 784 1198 l 523 1198 l 523 1454 l 784 1454 l 784 1198 m 439 1198 l 177 1198 l 177 1454 l 439 1454 l 439 1198 z "},"È":{"ha":934,"x_min":42,"x_max":895,"o":"m 895 749 l 626 749 l 626 853 l 442 853 l 442 699 l 694 699 l 694 437 l 442 437 l 442 252 l 626 252 l 626 386 l 892 386 l 892 0 l 42 0 l 42 242 l 147 242 l 147 869 l 42 869 l 42 1107 l 895 1107 l 895 749 m 695 1384 l 632 1203 l 239 1328 l 316 1542 l 695 1384 z "},"Í":{"ha":593,"x_min":42,"x_max":552,"o":"m 552 0 l 42 0 l 42 242 l 153 242 l 153 869 l 42 869 l 42 1107 l 552 1107 l 552 869 l 439 869 l 439 242 l 552 242 l 552 0 m 536 1328 l 143 1203 l 79 1384 l 458 1542 l 536 1328 z "},"Î":{"ha":593,"x_min":14,"x_max":552,"o":"m 552 0 l 42 0 l 42 242 l 153 242 l 153 869 l 42 869 l 42 1107 l 552 1107 l 552 869 l 439 869 l 439 242 l 552 242 l 552 0 m 545 1203 l 354 1203 l 283 1344 l 219 1203 l 14 1203 l 179 1495 l 397 1495 l 545 1203 z "},"Ï":{"ha":593,"x_min":-18,"x_max":589,"o":"m 552 0 l 42 0 l 42 242 l 153 242 l 153 869 l 42 869 l 42 1107 l 552 1107 l 552 869 l 439 869 l 439 242 l 552 242 l 552 0 m 589 1207 l 328 1207 l 328 1462 l 589 1462 l 589 1207 m 244 1207 l -18 1207 l -18 1462 l 244 1462 l 244 1207 z "},"Ì":{"ha":593,"x_min":42,"x_max":565,"o":"m 552 0 l 42 0 l 42 242 l 153 242 l 153 869 l 42 869 l 42 1107 l 552 1107 l 552 869 l 439 869 l 439 242 l 552 242 l 552 0 m 565 1384 l 502 1203 l 109 1328 l 186 1542 l 565 1384 z "},"Ó":{"ha":1235,"x_min":46,"x_max":1194,"o":"m 1194 560 q 1025 147 1194 320 q 616 -27 856 -27 q 213 134 375 -27 q 46 554 46 299 q 215 957 46 790 q 620 1124 384 1124 q 1024 959 855 1124 q 1194 560 1194 794 m 905 547 q 823 750 905 664 q 624 836 741 836 q 418 751 504 836 q 331 547 331 666 q 414 344 331 430 q 613 259 496 259 q 819 343 733 259 q 905 547 905 428 m 861 1328 l 468 1203 l 404 1384 l 783 1542 l 861 1328 z "},"Ô":{"ha":1235,"x_min":46,"x_max":1194,"o":"m 1194 560 q 1025 147 1194 320 q 616 -27 856 -27 q 213 134 375 -27 q 46 554 46 299 q 215 957 46 790 q 620 1124 384 1124 q 1024 959 855 1124 q 1194 560 1194 794 m 905 547 q 823 750 905 664 q 624 836 741 836 q 418 751 504 836 q 331 547 331 666 q 414 344 331 430 q 613 259 496 259 q 819 343 733 259 q 905 547 905 428 m 911 1203 l 719 1203 l 649 1344 l 585 1203 l 380 1203 l 544 1495 l 763 1495 l 911 1203 z "},"Ò":{"ha":1235,"x_min":46,"x_max":1194,"o":"m 1194 560 q 1025 147 1194 320 q 616 -27 856 -27 q 213 134 375 -27 q 46 554 46 299 q 215 957 46 790 q 620 1124 384 1124 q 1024 959 855 1124 q 1194 560 1194 794 m 905 547 q 823 750 905 664 q 624 836 741 836 q 418 751 504 836 q 331 547 331 666 q 414 344 331 430 q 613 259 496 259 q 819 343 733 259 q 905 547 905 428 m 841 1384 l 778 1203 l 385 1328 l 462 1542 l 841 1384 z "},"Ú":{"ha":1121,"x_min":42,"x_max":1077,"o":"m 1077 869 l 969 869 l 969 376 q 855 91 969 206 q 556 -27 736 -27 q 247 85 357 -27 q 143 363 143 190 l 143 869 l 42 869 l 42 1107 l 493 1107 l 493 869 l 421 869 l 421 383 q 463 286 421 326 q 563 245 505 245 q 660 289 620 245 q 700 393 700 333 l 700 869 l 613 869 l 613 1107 l 1077 1107 l 1077 869 m 812 1328 l 420 1203 l 356 1384 l 735 1542 l 812 1328 z "},"Û":{"ha":1121,"x_min":42,"x_max":1077,"o":"m 1077 869 l 969 869 l 969 376 q 855 91 969 206 q 556 -27 736 -27 q 247 85 357 -27 q 143 363 143 190 l 143 869 l 42 869 l 42 1107 l 493 1107 l 493 869 l 421 869 l 421 383 q 463 286 421 326 q 563 245 505 245 q 660 289 620 245 q 700 393 700 333 l 700 869 l 613 869 l 613 1107 l 1077 1107 l 1077 869 m 829 1203 l 638 1203 l 568 1344 l 504 1203 l 299 1203 l 463 1495 l 681 1495 l 829 1203 z "},"Ù":{"ha":1121,"x_min":42,"x_max":1077,"o":"m 1077 869 l 969 869 l 969 376 q 855 91 969 206 q 556 -27 736 -27 q 247 85 357 -27 q 143 363 143 190 l 143 869 l 42 869 l 42 1107 l 493 1107 l 493 869 l 421 869 l 421 383 q 463 286 421 326 q 563 245 505 245 q 660 289 620 245 q 700 393 700 333 l 700 869 l 613 869 l 613 1107 l 1077 1107 l 1077 869 m 768 1384 l 705 1203 l 312 1328 l 389 1542 l 768 1384 z "}}}
